<svg xmlns="http://www.w3.org/2000/svg" xmlns:xlink="http://www.w3.org/1999/xlink" width="1920" zoomAndPan="magnify" viewBox="0 0 1440 817.92" height="1080" preserveAspectRatio="xMidYMid meet" version="1.0"><defs><filter x="0%" y="0%" width="100%" height="100%" id="90ae99ff8a"><feColorMatrix values="0 0 0 0 1 0 0 0 0 1 0 0 0 0 1 0 0 0 1 0" color-interpolation-filters="sRGB"/></filter><g/><clipPath id="6337cbfb2a"><path d="M 0.0703125 0 L 1439.929688 0 L 1439.929688 809.921875 L 0.0703125 809.921875 Z M 0.0703125 0 " clip-rule="nonzero"/></clipPath><clipPath id="47bc6105dc"><path d="M 0.0703125 0 L 1439.929688 0 L 1439.929688 789.34375 L 0.0703125 789.34375 Z M 0.0703125 0 " clip-rule="nonzero"/></clipPath><clipPath id="642e556d20"><path d="M 0.0703125 0 L 1439.929688 0 L 1439.929688 789.34375 L 0.0703125 789.34375 Z M 0.0703125 0 " clip-rule="nonzero"/></clipPath><clipPath id="1cdfe1c138"><path d="M 0.0703125 0 L 1439.929688 0 L 1439.929688 789.34375 L 0.0703125 789.34375 Z M 0.0703125 0 " clip-rule="nonzero"/></clipPath><clipPath id="71310f8f3a"><rect x="0" width="1440" y="0" height="790"/></clipPath><clipPath id="ba16e97263"><rect x="0" width="1440" y="0" height="790"/></clipPath><mask id="f840b0d1d2"><g filter="url(#90ae99ff8a)"><g transform="matrix(1, 0, 0, 1, 0.000000000000000014, 0.000000000000090728)"><g clip-path="url(#ba16e97263)"><g clip-path="url(#1cdfe1c138)"><g transform="matrix(1, 0, 0, 1, 0.000000000000000014, 0.000000000000090728)"><g clip-path="url(#71310f8f3a)"><g fill="#000000" fill-opacity="1"><g transform="translate(400.24241, 363.178416)"><g><path d="M 7.671875 0 L 7.671875 -2.296875 C 11.390625 -2.296875 14.238281 -3.191406 16.21875 -4.984375 C 18.207031 -6.773438 19.613281 -9.015625 20.4375 -11.703125 C 21.269531 -14.390625 21.78125 -17.238281 21.96875 -20.25 C 22.164062 -23.257812 22.265625 -25.914062 22.265625 -28.21875 L 22.265625 -163.75 C 22.265625 -166.050781 22.164062 -168.707031 21.96875 -171.71875 C 21.78125 -174.726562 21.269531 -177.578125 20.4375 -180.265625 C 19.613281 -182.953125 18.207031 -185.191406 16.21875 -186.984375 C 14.238281 -188.773438 11.390625 -189.671875 7.671875 -189.671875 L 7.671875 -191.96875 L 56.0625 -191.96875 L 56.0625 -189.671875 C 52.476562 -189.671875 49.660156 -188.773438 47.609375 -186.984375 C 45.554688 -185.191406 44.113281 -182.953125 43.28125 -180.265625 C 42.457031 -177.578125 41.945312 -174.726562 41.75 -171.71875 C 41.5625 -168.707031 41.46875 -166.050781 41.46875 -163.75 L 41.46875 -117.09375 L 145.703125 -117.09375 L 145.703125 -163.75 C 145.703125 -166.050781 145.601562 -168.707031 145.40625 -171.71875 C 145.21875 -174.726562 144.707031 -177.578125 143.875 -180.265625 C 143.039062 -182.953125 141.632812 -185.191406 139.65625 -186.984375 C 137.675781 -188.773438 134.828125 -189.671875 131.109375 -189.671875 L 131.109375 -191.96875 L 179.484375 -191.96875 L 179.484375 -189.671875 C 175.898438 -189.671875 173.082031 -188.773438 171.03125 -186.984375 C 168.988281 -185.191406 167.550781 -182.953125 166.71875 -180.265625 C 165.894531 -177.578125 165.382812 -174.726562 165.1875 -171.71875 C 165 -168.707031 164.90625 -166.050781 164.90625 -163.75 L 164.90625 -28.21875 C 164.90625 -25.914062 165 -23.257812 165.1875 -20.25 C 165.382812 -17.238281 165.894531 -14.390625 166.71875 -11.703125 C 167.550781 -9.015625 168.988281 -6.773438 171.03125 -4.984375 C 173.082031 -3.191406 175.898438 -2.296875 179.484375 -2.296875 L 179.484375 0 L 131.109375 0 L 131.109375 -2.296875 C 134.828125 -2.296875 137.675781 -3.191406 139.65625 -4.984375 C 141.632812 -6.773438 143.039062 -9.015625 143.875 -11.703125 C 144.707031 -14.390625 145.21875 -17.238281 145.40625 -20.25 C 145.601562 -23.257812 145.703125 -25.914062 145.703125 -28.21875 L 145.703125 -113.265625 L 41.46875 -113.265625 L 41.46875 -28.21875 C 41.46875 -25.914062 41.5625 -23.257812 41.75 -20.25 C 41.945312 -17.238281 42.457031 -14.390625 43.28125 -11.703125 C 44.113281 -9.015625 45.554688 -6.773438 47.609375 -4.984375 C 49.660156 -3.191406 52.476562 -2.296875 56.0625 -2.296875 L 56.0625 0 Z M 7.671875 0 "/></g></g></g><g fill="#000000" fill-opacity="1"><g transform="translate(581.840712, 363.178416)"><g><path d="M 49.90625 0 L 0 0 L 0 -2.296875 C 2.5625 -2.941406 5.34375 -3.90625 8.34375 -5.1875 C 11.351562 -6.46875 14.488281 -8.832031 17.75 -12.28125 C 21.019531 -15.738281 24.191406 -20.988281 27.265625 -28.03125 C 28.796875 -31.476562 30.296875 -35.125 31.765625 -38.96875 C 33.242188 -42.8125 34.910156 -47.257812 36.765625 -52.3125 C 38.617188 -57.363281 40.820312 -63.441406 43.375 -70.546875 C 45.9375 -77.648438 49.078125 -86.128906 52.796875 -95.984375 C 56.117188 -104.941406 59.570312 -114.023438 63.15625 -123.234375 C 66.738281 -132.453125 70.191406 -141.285156 73.515625 -149.734375 C 76.847656 -158.179688 79.796875 -165.734375 82.359375 -172.390625 C 80.691406 -174.691406 78.707031 -176.191406 76.40625 -176.890625 C 74.101562 -177.597656 70.710938 -177.953125 66.234375 -177.953125 L 59.125 -177.953125 L 59.125 -180.640625 L 62.203125 -180.640625 C 64.378906 -180.640625 66.710938 -181.4375 69.203125 -183.03125 C 71.703125 -184.632812 74.195312 -186.523438 76.6875 -188.703125 C 79.1875 -190.878906 81.488281 -192.765625 83.59375 -194.359375 C 85.707031 -195.960938 87.40625 -196.765625 88.6875 -196.765625 C 90.09375 -196.765625 91.179688 -196.316406 91.953125 -195.421875 C 92.722656 -194.523438 93.363281 -193.375 93.875 -191.96875 C 95.15625 -189.019531 97.101562 -184.21875 99.71875 -177.5625 C 102.34375 -170.914062 105.414062 -163.113281 108.9375 -154.15625 C 112.457031 -145.195312 116.132812 -135.691406 119.96875 -125.640625 C 123.8125 -115.597656 127.523438 -105.710938 131.109375 -95.984375 C 134.828125 -86.128906 137.960938 -77.648438 140.515625 -70.546875 C 143.078125 -63.441406 145.285156 -57.363281 147.140625 -52.3125 C 148.992188 -47.257812 150.65625 -42.8125 152.125 -38.96875 C 153.601562 -35.125 155.109375 -31.476562 156.640625 -28.03125 C 159.847656 -20.988281 163.050781 -15.738281 166.25 -12.28125 C 169.445312 -8.832031 172.546875 -6.46875 175.546875 -5.1875 C 178.554688 -3.90625 181.34375 -2.941406 183.90625 -2.296875 L 183.90625 0 L 122.859375 0 L 122.859375 -2.296875 C 125.160156 -2.296875 127.523438 -2.742188 129.953125 -3.640625 C 132.390625 -4.535156 134.472656 -6.132812 136.203125 -8.4375 C 137.929688 -10.75 138.796875 -13.890625 138.796875 -17.859375 C 138.796875 -20.546875 137.800781 -25.25 135.8125 -31.96875 C 133.832031 -38.6875 131.304688 -46.523438 128.234375 -55.484375 L 43.953125 -55.484375 C 41.015625 -46.523438 38.617188 -38.75 36.765625 -32.15625 C 34.910156 -25.5625 33.984375 -20.984375 33.984375 -18.421875 C 33.984375 -13.691406 34.84375 -10.175781 36.5625 -7.875 C 38.289062 -5.570312 40.398438 -4.066406 42.890625 -3.359375 C 45.390625 -2.648438 47.726562 -2.296875 49.90625 -2.296875 Z M 84.65625 -168.171875 C 82.226562 -161.765625 79.347656 -154.175781 76.015625 -145.40625 C 72.691406 -136.644531 69.207031 -127.304688 65.5625 -117.390625 C 61.914062 -107.472656 58.332031 -97.519531 54.8125 -87.53125 C 51.289062 -77.550781 48.054688 -68.144531 45.109375 -59.3125 L 126.703125 -59.3125 C 124.015625 -67 121.035156 -75.128906 117.765625 -83.703125 C 114.503906 -92.273438 111.242188 -100.816406 107.984375 -109.328125 C 104.722656 -117.835938 101.554688 -125.898438 98.484375 -133.515625 C 95.410156 -141.128906 92.6875 -147.941406 90.3125 -153.953125 C 87.945312 -159.972656 86.0625 -164.710938 84.65625 -168.171875 Z M 84.65625 -168.171875 "/></g></g></g><g fill="#000000" fill-opacity="1"><g transform="translate(760.175635, 363.178416)"><g><path d="M 7.671875 -191.96875 L 56.0625 -191.96875 L 56.0625 -189.671875 C 52.476562 -189.671875 49.660156 -188.773438 47.609375 -186.984375 C 45.554688 -185.191406 44.113281 -182.953125 43.28125 -180.265625 C 42.457031 -177.578125 41.945312 -174.726562 41.75 -171.71875 C 41.5625 -168.707031 41.46875 -166.050781 41.46875 -163.75 L 41.46875 -3.84375 L 87.34375 -3.84375 C 97.195312 -3.84375 106.09375 -5.148438 114.03125 -7.765625 C 121.96875 -10.390625 128.910156 -13.75 134.859375 -17.84375 C 140.804688 -21.945312 145.734375 -26.363281 149.640625 -31.09375 C 153.546875 -35.832031 156.457031 -40.3125 158.375 -44.53125 L 160.671875 -44.53125 L 144.9375 0 L 7.671875 0 L 7.671875 -2.296875 C 11.390625 -2.296875 14.238281 -3.191406 16.21875 -4.984375 C 18.207031 -6.773438 19.613281 -9.015625 20.4375 -11.703125 C 21.269531 -14.390625 21.78125 -17.238281 21.96875 -20.25 C 22.164062 -23.257812 22.265625 -25.914062 22.265625 -28.21875 L 22.265625 -163.75 C 22.265625 -166.050781 22.164062 -168.707031 21.96875 -171.71875 C 21.78125 -174.726562 21.269531 -177.578125 20.4375 -180.265625 C 19.613281 -182.953125 18.207031 -185.191406 16.21875 -186.984375 C 14.238281 -188.773438 11.390625 -189.671875 7.671875 -189.671875 Z M 7.671875 -191.96875 "/></g></g></g><g fill="#000000" fill-opacity="1"><g transform="translate(915.282796, 363.178416)"><g><path d="M 56.0625 0 L 7.671875 0 L 7.671875 -2.296875 C 11.390625 -2.296875 14.238281 -3.191406 16.21875 -4.984375 C 18.207031 -6.773438 19.613281 -9.015625 20.4375 -11.703125 C 21.269531 -14.390625 21.78125 -17.238281 21.96875 -20.25 C 22.164062 -23.257812 22.265625 -25.914062 22.265625 -28.21875 L 22.265625 -163.75 C 22.265625 -166.050781 22.164062 -168.707031 21.96875 -171.71875 C 21.78125 -174.726562 21.269531 -177.578125 20.4375 -180.265625 C 19.613281 -182.953125 18.207031 -185.191406 16.21875 -186.984375 C 14.238281 -188.773438 11.390625 -189.671875 7.671875 -189.671875 L 7.671875 -191.96875 L 157.421875 -191.96875 L 157.421875 -161.828125 L 155.109375 -161.828125 C 155.109375 -167.972656 153.21875 -172.960938 149.4375 -176.796875 C 145.664062 -180.640625 140.707031 -183.488281 134.5625 -185.34375 C 128.425781 -187.195312 121.707031 -188.125 114.40625 -188.125 L 41.46875 -188.125 L 41.46875 -117.09375 L 139.5625 -117.09375 L 132.078125 -95.984375 L 129.765625 -95.984375 C 127.722656 -102.378906 124.015625 -106.757812 118.640625 -109.125 C 113.265625 -111.5 106.191406 -112.78125 97.421875 -112.96875 C 88.660156 -113.164062 78.070312 -113.265625 65.65625 -113.265625 L 41.46875 -113.265625 L 41.46875 -28.21875 C 41.46875 -25.914062 41.5625 -23.257812 41.75 -20.25 C 41.945312 -17.238281 42.457031 -14.390625 43.28125 -11.703125 C 44.113281 -9.015625 45.554688 -6.773438 47.609375 -4.984375 C 49.660156 -3.191406 52.476562 -2.296875 56.0625 -2.296875 Z M 56.0625 0 "/></g></g></g></g></g></g></g></g></g></mask><clipPath id="50dccb81da"><path d="M 0.0703125 0 L 1439.929688 0 L 1439.929688 789.34375 L 0.0703125 789.34375 Z M 0.0703125 0 " clip-rule="nonzero"/></clipPath><linearGradient x1="225.140152" gradientTransform="matrix(0.575906, 0, 0, 0.576132, 46.938134, 194.396555)" y1="1339.179881" x2="2160.258935" gradientUnits="userSpaceOnUse" y2="-595.938938" id="915eab2798"><stop stop-opacity="1" stop-color="rgb(97.24884%, 67.83905%, 0%)" offset="0"/><stop stop-opacity="1" stop-color="rgb(97.24884%, 67.83905%, 0%)" offset="0.125"/><stop stop-opacity="1" stop-color="rgb(97.24884%, 67.83905%, 0%)" offset="0.1875"/><stop stop-opacity="1" stop-color="rgb(97.24884%, 67.83905%, 0%)" offset="0.203125"/><stop stop-opacity="1" stop-color="rgb(97.219849%, 67.681885%, 0.0640869%)" offset="0.210937"/><stop stop-opacity="1" stop-color="rgb(97.070312%, 66.889954%, 0.395203%)" offset="0.214844"/><stop stop-opacity="1" stop-color="rgb(96.951294%, 66.255188%, 0.660706%)" offset="0.21875"/><stop stop-opacity="1" stop-color="rgb(96.83075%, 65.620422%, 0.926208%)" offset="0.222656"/><stop stop-opacity="1" stop-color="rgb(96.711731%, 64.985657%, 1.191711%)" offset="0.226562"/><stop stop-opacity="1" stop-color="rgb(96.591187%, 64.349365%, 1.457214%)" offset="0.230469"/><stop stop-opacity="1" stop-color="rgb(96.472168%, 63.7146%, 1.724243%)" offset="0.234375"/><stop stop-opacity="1" stop-color="rgb(96.351624%, 63.078308%, 1.989746%)" offset="0.238281"/><stop stop-opacity="1" stop-color="rgb(96.232605%, 62.443542%, 2.255249%)" offset="0.242187"/><stop stop-opacity="1" stop-color="rgb(96.113586%, 61.808777%, 2.520752%)" offset="0.246094"/><stop stop-opacity="1" stop-color="rgb(95.994568%, 61.174011%, 2.786255%)" offset="0.25"/><stop stop-opacity="1" stop-color="rgb(95.874023%, 60.53772%, 3.051758%)" offset="0.253906"/><stop stop-opacity="1" stop-color="rgb(95.755005%, 59.902954%, 3.317261%)" offset="0.257812"/><stop stop-opacity="1" stop-color="rgb(95.63446%, 59.266663%, 3.582764%)" offset="0.261719"/><stop stop-opacity="1" stop-color="rgb(95.515442%, 58.631897%, 3.848267%)" offset="0.265625"/><stop stop-opacity="1" stop-color="rgb(95.394897%, 57.995605%, 4.11377%)" offset="0.269531"/><stop stop-opacity="1" stop-color="rgb(95.275879%, 57.36084%, 4.379272%)" offset="0.273438"/><stop stop-opacity="1" stop-color="rgb(95.155334%, 56.726074%, 4.644775%)" offset="0.277344"/><stop stop-opacity="1" stop-color="rgb(95.036316%, 56.091309%, 4.910278%)" offset="0.28125"/><stop stop-opacity="1" stop-color="rgb(94.915771%, 55.455017%, 5.175781%)" offset="0.285156"/><stop stop-opacity="1" stop-color="rgb(94.796753%, 54.820251%, 5.441284%)" offset="0.289062"/><stop stop-opacity="1" stop-color="rgb(94.677734%, 54.18396%, 5.706787%)" offset="0.292969"/><stop stop-opacity="1" stop-color="rgb(94.558716%, 53.549194%, 5.973816%)" offset="0.296875"/><stop stop-opacity="1" stop-color="rgb(94.438171%, 52.914429%, 6.239319%)" offset="0.300781"/><stop stop-opacity="1" stop-color="rgb(94.319153%, 52.279663%, 6.504822%)" offset="0.304688"/><stop stop-opacity="1" stop-color="rgb(94.198608%, 51.643372%, 6.770325%)" offset="0.308594"/><stop stop-opacity="1" stop-color="rgb(94.07959%, 51.008606%, 7.035828%)" offset="0.3125"/><stop stop-opacity="1" stop-color="rgb(93.959045%, 50.372314%, 7.301331%)" offset="0.316406"/><stop stop-opacity="1" stop-color="rgb(93.840027%, 49.737549%, 7.566833%)" offset="0.320312"/><stop stop-opacity="1" stop-color="rgb(93.719482%, 49.101257%, 7.832336%)" offset="0.324219"/><stop stop-opacity="1" stop-color="rgb(93.600464%, 48.466492%, 8.097839%)" offset="0.328125"/><stop stop-opacity="1" stop-color="rgb(93.479919%, 47.831726%, 8.363342%)" offset="0.332031"/><stop stop-opacity="1" stop-color="rgb(93.360901%, 47.19696%, 8.628845%)" offset="0.335938"/><stop stop-opacity="1" stop-color="rgb(93.241882%, 46.560669%, 8.894348%)" offset="0.339844"/><stop stop-opacity="1" stop-color="rgb(93.122864%, 45.925903%, 9.159851%)" offset="0.34375"/><stop stop-opacity="1" stop-color="rgb(93.002319%, 45.289612%, 9.425354%)" offset="0.347656"/><stop stop-opacity="1" stop-color="rgb(92.883301%, 44.654846%, 9.690857%)" offset="0.351562"/><stop stop-opacity="1" stop-color="rgb(92.762756%, 44.020081%, 9.95636%)" offset="0.355469"/><stop stop-opacity="1" stop-color="rgb(92.643738%, 43.385315%, 10.223389%)" offset="0.359375"/><stop stop-opacity="1" stop-color="rgb(92.523193%, 42.749023%, 10.488892%)" offset="0.363281"/><stop stop-opacity="1" stop-color="rgb(92.404175%, 42.114258%, 10.754395%)" offset="0.367187"/><stop stop-opacity="1" stop-color="rgb(92.28363%, 41.477966%, 11.019897%)" offset="0.371094"/><stop stop-opacity="1" stop-color="rgb(92.164612%, 40.843201%, 11.2854%)" offset="0.375"/><stop stop-opacity="1" stop-color="rgb(92.044067%, 40.206909%, 11.550903%)" offset="0.378906"/><stop stop-opacity="1" stop-color="rgb(91.925049%, 39.572144%, 11.816406%)" offset="0.382812"/><stop stop-opacity="1" stop-color="rgb(91.80603%, 38.937378%, 12.081909%)" offset="0.386719"/><stop stop-opacity="1" stop-color="rgb(91.687012%, 38.302612%, 12.347412%)" offset="0.390625"/><stop stop-opacity="1" stop-color="rgb(91.566467%, 37.666321%, 12.612915%)" offset="0.394531"/><stop stop-opacity="1" stop-color="rgb(91.447449%, 37.031555%, 12.878418%)" offset="0.398437"/><stop stop-opacity="1" stop-color="rgb(91.326904%, 36.395264%, 13.143921%)" offset="0.402344"/><stop stop-opacity="1" stop-color="rgb(91.207886%, 35.760498%, 13.409424%)" offset="0.40625"/><stop stop-opacity="1" stop-color="rgb(91.087341%, 35.125732%, 13.674927%)" offset="0.410156"/><stop stop-opacity="1" stop-color="rgb(90.968323%, 34.490967%, 13.94043%)" offset="0.414062"/><stop stop-opacity="1" stop-color="rgb(90.847778%, 33.854675%, 14.205933%)" offset="0.417969"/><stop stop-opacity="1" stop-color="rgb(90.72876%, 33.21991%, 14.472961%)" offset="0.421875"/><stop stop-opacity="1" stop-color="rgb(90.608215%, 32.583618%, 14.738464%)" offset="0.425781"/><stop stop-opacity="1" stop-color="rgb(90.489197%, 31.948853%, 15.003967%)" offset="0.429688"/><stop stop-opacity="1" stop-color="rgb(90.370178%, 31.314087%, 15.26947%)" offset="0.433594"/><stop stop-opacity="1" stop-color="rgb(90.25116%, 30.679321%, 15.534973%)" offset="0.4375"/><stop stop-opacity="1" stop-color="rgb(90.130615%, 30.04303%, 15.800476%)" offset="0.441406"/><stop stop-opacity="1" stop-color="rgb(90.011597%, 29.408264%, 16.065979%)" offset="0.445312"/><stop stop-opacity="1" stop-color="rgb(89.891052%, 28.771973%, 16.331482%)" offset="0.449219"/><stop stop-opacity="1" stop-color="rgb(89.772034%, 28.137207%, 16.596985%)" offset="0.453125"/><stop stop-opacity="1" stop-color="rgb(89.651489%, 27.500916%, 16.862488%)" offset="0.457031"/><stop stop-opacity="1" stop-color="rgb(89.532471%, 26.86615%, 17.127991%)" offset="0.460937"/><stop stop-opacity="1" stop-color="rgb(89.411926%, 26.231384%, 17.393494%)" offset="0.464844"/><stop stop-opacity="1" stop-color="rgb(89.292908%, 25.596619%, 17.658997%)" offset="0.46875"/><stop stop-opacity="1" stop-color="rgb(89.172363%, 24.960327%, 17.9245%)" offset="0.472656"/><stop stop-opacity="1" stop-color="rgb(89.053345%, 24.325562%, 18.190002%)" offset="0.476562"/><stop stop-opacity="1" stop-color="rgb(88.934326%, 23.68927%, 18.455505%)" offset="0.480469"/><stop stop-opacity="1" stop-color="rgb(88.815308%, 23.054504%, 18.722534%)" offset="0.484375"/><stop stop-opacity="1" stop-color="rgb(88.694763%, 22.419739%, 18.988037%)" offset="0.488281"/><stop stop-opacity="1" stop-color="rgb(88.575745%, 21.784973%, 19.25354%)" offset="0.492187"/><stop stop-opacity="1" stop-color="rgb(88.4552%, 21.148682%, 19.519043%)" offset="0.496094"/><stop stop-opacity="1" stop-color="rgb(88.336182%, 20.513916%, 19.784546%)" offset="0.5"/><stop stop-opacity="1" stop-color="rgb(87.767029%, 20.550537%, 20.523071%)" offset="0.503906"/><stop stop-opacity="1" stop-color="rgb(87.197876%, 20.588684%, 21.263123%)" offset="0.507812"/><stop stop-opacity="1" stop-color="rgb(86.322021%, 21.083069%, 22.325134%)" offset="0.511719"/><stop stop-opacity="1" stop-color="rgb(85.447693%, 21.577454%, 23.388672%)" offset="0.515625"/><stop stop-opacity="1" stop-color="rgb(84.571838%, 22.071838%, 24.450684%)" offset="0.519531"/><stop stop-opacity="1" stop-color="rgb(83.69751%, 22.566223%, 25.512695%)" offset="0.523437"/><stop stop-opacity="1" stop-color="rgb(82.821655%, 23.060608%, 26.574707%)" offset="0.527344"/><stop stop-opacity="1" stop-color="rgb(81.947327%, 23.556519%, 27.638245%)" offset="0.53125"/><stop stop-opacity="1" stop-color="rgb(81.071472%, 24.050903%, 28.700256%)" offset="0.535156"/><stop stop-opacity="1" stop-color="rgb(80.197144%, 24.545288%, 29.762268%)" offset="0.539062"/><stop stop-opacity="1" stop-color="rgb(79.321289%, 25.039673%, 30.82428%)" offset="0.542969"/><stop stop-opacity="1" stop-color="rgb(78.44696%, 25.534058%, 31.887817%)" offset="0.546875"/><stop stop-opacity="1" stop-color="rgb(77.572632%, 26.028442%, 32.949829%)" offset="0.550781"/><stop stop-opacity="1" stop-color="rgb(76.698303%, 26.524353%, 34.011841%)" offset="0.554688"/><stop stop-opacity="1" stop-color="rgb(75.822449%, 27.018738%, 35.073853%)" offset="0.558594"/><stop stop-opacity="1" stop-color="rgb(74.94812%, 27.513123%, 36.13739%)" offset="0.5625"/><stop stop-opacity="1" stop-color="rgb(74.072266%, 28.007507%, 37.199402%)" offset="0.566406"/><stop stop-opacity="1" stop-color="rgb(73.197937%, 28.503418%, 38.261414%)" offset="0.570312"/><stop stop-opacity="1" stop-color="rgb(72.322083%, 28.997803%, 39.323425%)" offset="0.574219"/><stop stop-opacity="1" stop-color="rgb(71.447754%, 29.492188%, 40.386963%)" offset="0.578125"/><stop stop-opacity="1" stop-color="rgb(70.571899%, 29.986572%, 41.448975%)" offset="0.582031"/><stop stop-opacity="1" stop-color="rgb(69.697571%, 30.480957%, 42.510986%)" offset="0.585938"/><stop stop-opacity="1" stop-color="rgb(68.821716%, 30.975342%, 43.572998%)" offset="0.589844"/><stop stop-opacity="1" stop-color="rgb(67.947388%, 31.471252%, 44.636536%)" offset="0.59375"/><stop stop-opacity="1" stop-color="rgb(67.071533%, 31.965637%, 45.698547%)" offset="0.597656"/><stop stop-opacity="1" stop-color="rgb(66.197205%, 32.460022%, 46.760559%)" offset="0.601562"/><stop stop-opacity="1" stop-color="rgb(65.32135%, 32.954407%, 47.822571%)" offset="0.605469"/><stop stop-opacity="1" stop-color="rgb(64.447021%, 33.450317%, 48.886108%)" offset="0.609375"/><stop stop-opacity="1" stop-color="rgb(63.571167%, 33.944702%, 49.94812%)" offset="0.613281"/><stop stop-opacity="1" stop-color="rgb(62.696838%, 34.439087%, 51.010132%)" offset="0.617187"/><stop stop-opacity="1" stop-color="rgb(61.820984%, 34.933472%, 52.072144%)" offset="0.621094"/><stop stop-opacity="1" stop-color="rgb(60.946655%, 35.427856%, 53.135681%)" offset="0.625"/><stop stop-opacity="1" stop-color="rgb(60.072327%, 35.922241%, 54.197693%)" offset="0.628906"/><stop stop-opacity="1" stop-color="rgb(59.197998%, 36.418152%, 55.259705%)" offset="0.632812"/><stop stop-opacity="1" stop-color="rgb(58.322144%, 36.912537%, 56.321716%)" offset="0.636719"/><stop stop-opacity="1" stop-color="rgb(57.447815%, 37.406921%, 57.385254%)" offset="0.640625"/><stop stop-opacity="1" stop-color="rgb(56.57196%, 37.901306%, 58.447266%)" offset="0.644531"/><stop stop-opacity="1" stop-color="rgb(55.697632%, 38.395691%, 59.509277%)" offset="0.648438"/><stop stop-opacity="1" stop-color="rgb(54.821777%, 38.890076%, 60.571289%)" offset="0.652344"/><stop stop-opacity="1" stop-color="rgb(53.947449%, 39.385986%, 61.634827%)" offset="0.65625"/><stop stop-opacity="1" stop-color="rgb(53.071594%, 39.880371%, 62.696838%)" offset="0.660156"/><stop stop-opacity="1" stop-color="rgb(52.197266%, 40.374756%, 63.75885%)" offset="0.664062"/><stop stop-opacity="1" stop-color="rgb(51.321411%, 40.869141%, 64.820862%)" offset="0.667969"/><stop stop-opacity="1" stop-color="rgb(50.447083%, 41.365051%, 65.884399%)" offset="0.671875"/><stop stop-opacity="1" stop-color="rgb(49.571228%, 41.859436%, 66.946411%)" offset="0.675781"/><stop stop-opacity="1" stop-color="rgb(48.696899%, 42.353821%, 68.008423%)" offset="0.679688"/><stop stop-opacity="1" stop-color="rgb(47.821045%, 42.848206%, 69.070435%)" offset="0.683594"/><stop stop-opacity="1" stop-color="rgb(46.946716%, 43.34259%, 70.133972%)" offset="0.6875"/><stop stop-opacity="1" stop-color="rgb(46.070862%, 43.836975%, 71.195984%)" offset="0.691406"/><stop stop-opacity="1" stop-color="rgb(45.196533%, 44.332886%, 72.257996%)" offset="0.695312"/><stop stop-opacity="1" stop-color="rgb(44.322205%, 44.827271%, 73.320007%)" offset="0.699219"/><stop stop-opacity="1" stop-color="rgb(43.447876%, 45.321655%, 74.383545%)" offset="0.703125"/><stop stop-opacity="1" stop-color="rgb(42.572021%, 45.81604%, 75.445557%)" offset="0.707031"/><stop stop-opacity="1" stop-color="rgb(41.697693%, 46.310425%, 76.507568%)" offset="0.710937"/><stop stop-opacity="1" stop-color="rgb(40.821838%, 46.80481%, 77.56958%)" offset="0.714844"/><stop stop-opacity="1" stop-color="rgb(39.94751%, 47.30072%, 78.633118%)" offset="0.71875"/><stop stop-opacity="1" stop-color="rgb(39.071655%, 47.795105%, 79.695129%)" offset="0.722656"/><stop stop-opacity="1" stop-color="rgb(38.197327%, 48.28949%, 80.757141%)" offset="0.726562"/><stop stop-opacity="1" stop-color="rgb(37.321472%, 48.783875%, 81.819153%)" offset="0.730469"/><stop stop-opacity="1" stop-color="rgb(36.447144%, 49.279785%, 82.88269%)" offset="0.734375"/><stop stop-opacity="1" stop-color="rgb(35.571289%, 49.77417%, 83.944702%)" offset="0.738281"/><stop stop-opacity="1" stop-color="rgb(34.69696%, 50.268555%, 85.006714%)" offset="0.742187"/><stop stop-opacity="1" stop-color="rgb(33.821106%, 50.762939%, 86.068726%)" offset="0.746094"/><stop stop-opacity="1" stop-color="rgb(32.946777%, 51.257324%, 87.132263%)" offset="0.75"/><stop stop-opacity="1" stop-color="rgb(32.070923%, 51.751709%, 88.194275%)" offset="0.753906"/><stop stop-opacity="1" stop-color="rgb(31.196594%, 52.24762%, 89.256287%)" offset="0.757812"/><stop stop-opacity="1" stop-color="rgb(30.32074%, 52.742004%, 90.318298%)" offset="0.761719"/><stop stop-opacity="1" stop-color="rgb(29.446411%, 53.236389%, 91.381836%)" offset="0.765625"/><stop stop-opacity="1" stop-color="rgb(28.572083%, 53.730774%, 92.443848%)" offset="0.769531"/><stop stop-opacity="1" stop-color="rgb(27.697754%, 54.226685%, 93.505859%)" offset="0.773437"/><stop stop-opacity="1" stop-color="rgb(26.821899%, 54.721069%, 94.567871%)" offset="0.777344"/><stop stop-opacity="1" stop-color="rgb(25.947571%, 55.215454%, 95.631409%)" offset="0.78125"/><stop stop-opacity="1" stop-color="rgb(25.071716%, 55.709839%, 96.69342%)" offset="0.785156"/><stop stop-opacity="1" stop-color="rgb(24.197388%, 56.204224%, 97.755432%)" offset="0.789062"/><stop stop-opacity="1" stop-color="rgb(23.321533%, 56.698608%, 98.817444%)" offset="0.792969"/><stop stop-opacity="1" stop-color="rgb(22.447205%, 57.194519%, 99.880981%)" offset="0.796875"/><stop stop-opacity="1" stop-color="rgb(22.398376%, 57.221985%, 99.940491%)" offset="0.8125"/><stop stop-opacity="1" stop-color="rgb(22.349548%, 57.249451%, 100%)" offset="0.875"/><stop stop-opacity="1" stop-color="rgb(22.349548%, 57.249451%, 100%)" offset="1"/></linearGradient><clipPath id="226b3d9462"><rect x="0" width="1440" y="0" height="790"/></clipPath><clipPath id="cd70c21e5c"><rect x="0" width="1440" y="0" height="790"/></clipPath><clipPath id="688b8dd322"><path d="M 0.0703125 21.09375 L 1439.929688 21.09375 L 1439.929688 809.921875 L 0.0703125 809.921875 Z M 0.0703125 21.09375 " clip-rule="nonzero"/></clipPath><clipPath id="2bbb8aea5e"><path d="M 0.0703125 0.09375 L 1439.929688 0.09375 L 1439.929688 788.921875 L 0.0703125 788.921875 Z M 0.0703125 0.09375 " clip-rule="nonzero"/></clipPath><clipPath id="738494c14a"><path d="M 0.0703125 0.09375 L 1439.929688 0.09375 L 1439.929688 788.921875 L 0.0703125 788.921875 Z M 0.0703125 0.09375 " clip-rule="nonzero"/></clipPath><clipPath id="b48745433f"><rect x="0" width="1440" y="0" height="789"/></clipPath><clipPath id="fcce0d0060"><rect x="0" width="1440" y="0" height="789"/></clipPath><mask id="c359cb0670"><g filter="url(#90ae99ff8a)"><g transform="matrix(1, 0, 0, 1, 0.000000000000000014, 0.000000000000088818)"><g clip-path="url(#fcce0d0060)"><g clip-path="url(#738494c14a)"><g transform="matrix(1, 0, 0, 1, 0.000000000000000014, 0.000000000000088818)"><g clip-path="url(#b48745433f)"><g fill="#000000" fill-opacity="1"><g transform="translate(47.125642, 552.957866)"><g><path d="M 2.296875 -161.828125 L 0 -161.828125 L 0 -191.96875 L 142.4375 -191.96875 L 142.4375 -161.828125 L 140.140625 -161.828125 C 140.140625 -167.972656 138.25 -172.960938 134.46875 -176.796875 C 130.695312 -180.640625 125.738281 -183.488281 119.59375 -185.34375 C 113.445312 -187.195312 106.726562 -188.125 99.4375 -188.125 L 80.8125 -188.125 L 80.8125 -28.21875 C 80.8125 -25.914062 80.90625 -23.257812 81.09375 -20.25 C 81.289062 -17.238281 81.804688 -14.390625 82.640625 -11.703125 C 83.472656 -9.015625 84.910156 -6.773438 86.953125 -4.984375 C 89.003906 -3.191406 91.820312 -2.296875 95.40625 -2.296875 L 95.40625 0 L 47.03125 0 L 47.03125 -2.296875 C 50.738281 -2.296875 53.582031 -3.191406 55.5625 -4.984375 C 57.550781 -6.773438 58.960938 -9.015625 59.796875 -11.703125 C 60.628906 -14.390625 61.140625 -17.238281 61.328125 -20.25 C 61.523438 -23.257812 61.625 -25.914062 61.625 -28.21875 L 61.625 -188.125 L 43 -188.125 C 35.707031 -188.125 28.988281 -187.195312 22.84375 -185.34375 C 16.695312 -183.488281 11.734375 -180.640625 7.953125 -176.796875 C 4.179688 -172.960938 2.296875 -167.972656 2.296875 -161.828125 Z M 2.296875 -161.828125 "/></g></g></g><g fill="#000000" fill-opacity="1"><g transform="translate(183.996234, 552.957866)"><g><path d="M 7.671875 0 L 7.671875 -2.296875 C 11.390625 -2.296875 14.238281 -3.191406 16.21875 -4.984375 C 18.207031 -6.773438 19.613281 -9.015625 20.4375 -11.703125 C 21.269531 -14.390625 21.78125 -17.238281 21.96875 -20.25 C 22.164062 -23.257812 22.265625 -25.914062 22.265625 -28.21875 L 22.265625 -163.75 C 22.265625 -166.050781 22.164062 -168.707031 21.96875 -171.71875 C 21.78125 -174.726562 21.269531 -177.578125 20.4375 -180.265625 C 19.613281 -182.953125 18.207031 -185.191406 16.21875 -186.984375 C 14.238281 -188.773438 11.390625 -189.671875 7.671875 -189.671875 L 7.671875 -191.96875 L 56.0625 -191.96875 L 56.0625 -189.671875 C 52.476562 -189.671875 49.660156 -188.773438 47.609375 -186.984375 C 45.554688 -185.191406 44.113281 -182.953125 43.28125 -180.265625 C 42.457031 -177.578125 41.945312 -174.726562 41.75 -171.71875 C 41.5625 -168.707031 41.46875 -166.050781 41.46875 -163.75 L 41.46875 -117.09375 L 145.703125 -117.09375 L 145.703125 -163.75 C 145.703125 -166.050781 145.601562 -168.707031 145.40625 -171.71875 C 145.21875 -174.726562 144.707031 -177.578125 143.875 -180.265625 C 143.039062 -182.953125 141.632812 -185.191406 139.65625 -186.984375 C 137.675781 -188.773438 134.828125 -189.671875 131.109375 -189.671875 L 131.109375 -191.96875 L 179.484375 -191.96875 L 179.484375 -189.671875 C 175.898438 -189.671875 173.082031 -188.773438 171.03125 -186.984375 C 168.988281 -185.191406 167.550781 -182.953125 166.71875 -180.265625 C 165.894531 -177.578125 165.382812 -174.726562 165.1875 -171.71875 C 165 -168.707031 164.90625 -166.050781 164.90625 -163.75 L 164.90625 -28.21875 C 164.90625 -25.914062 165 -23.257812 165.1875 -20.25 C 165.382812 -17.238281 165.894531 -14.390625 166.71875 -11.703125 C 167.550781 -9.015625 168.988281 -6.773438 171.03125 -4.984375 C 173.082031 -3.191406 175.898438 -2.296875 179.484375 -2.296875 L 179.484375 0 L 131.109375 0 L 131.109375 -2.296875 C 134.828125 -2.296875 137.675781 -3.191406 139.65625 -4.984375 C 141.632812 -6.773438 143.039062 -9.015625 143.875 -11.703125 C 144.707031 -14.390625 145.21875 -17.238281 145.40625 -20.25 C 145.601562 -23.257812 145.703125 -25.914062 145.703125 -28.21875 L 145.703125 -113.265625 L 41.46875 -113.265625 L 41.46875 -28.21875 C 41.46875 -25.914062 41.5625 -23.257812 41.75 -20.25 C 41.945312 -17.238281 42.457031 -14.390625 43.28125 -11.703125 C 44.113281 -9.015625 45.554688 -6.773438 47.609375 -4.984375 C 49.660156 -3.191406 52.476562 -2.296875 56.0625 -2.296875 L 56.0625 0 Z M 7.671875 0 "/></g></g></g><g fill="#000000" fill-opacity="1"><g transform="translate(365.594553, 552.957866)"><g><path d="M 109.234375 4.796875 C 94.898438 4.796875 81.75 2.175781 69.78125 -3.0625 C 57.8125 -8.3125 47.472656 -15.539062 38.765625 -24.75 C 30.066406 -33.96875 23.347656 -44.65625 18.609375 -56.8125 C 13.878906 -68.976562 11.515625 -82.035156 11.515625 -95.984375 C 11.515625 -109.929688 13.878906 -122.984375 18.609375 -135.140625 C 23.347656 -147.304688 30.066406 -157.992188 38.765625 -167.203125 C 47.472656 -176.421875 57.8125 -183.648438 69.78125 -188.890625 C 81.75 -194.140625 94.898438 -196.765625 109.234375 -196.765625 C 123.691406 -196.765625 136.867188 -194.140625 148.765625 -188.890625 C 160.671875 -183.648438 170.972656 -176.421875 179.671875 -167.203125 C 188.378906 -157.992188 195.097656 -147.304688 199.828125 -135.140625 C 204.566406 -122.984375 206.9375 -109.929688 206.9375 -95.984375 C 206.9375 -82.035156 204.566406 -68.976562 199.828125 -56.8125 C 195.097656 -44.65625 188.378906 -33.96875 179.671875 -24.75 C 170.972656 -15.539062 160.671875 -8.3125 148.765625 -3.0625 C 136.867188 2.175781 123.691406 4.796875 109.234375 4.796875 Z M 31.671875 -95.984375 C 31.671875 -82.804688 33.554688 -70.390625 37.328125 -58.734375 C 41.109375 -47.085938 46.453125 -36.878906 53.359375 -28.109375 C 60.273438 -19.347656 68.46875 -12.472656 77.9375 -7.484375 C 87.40625 -2.492188 97.835938 0 109.234375 0 C 120.617188 0 131.046875 -2.492188 140.515625 -7.484375 C 149.992188 -12.472656 158.1875 -19.347656 165.09375 -28.109375 C 172 -36.878906 177.335938 -47.085938 181.109375 -58.734375 C 184.890625 -70.390625 186.78125 -82.804688 186.78125 -95.984375 C 186.78125 -109.296875 184.890625 -121.742188 181.109375 -133.328125 C 177.335938 -144.910156 172 -155.082031 165.09375 -163.84375 C 158.1875 -172.613281 149.992188 -179.492188 140.515625 -184.484375 C 131.046875 -189.472656 120.617188 -191.96875 109.234375 -191.96875 C 97.835938 -191.96875 87.40625 -189.472656 77.9375 -184.484375 C 68.46875 -179.492188 60.273438 -172.613281 53.359375 -163.84375 C 46.453125 -155.082031 41.109375 -144.910156 37.328125 -133.328125 C 33.554688 -121.742188 31.671875 -109.296875 31.671875 -95.984375 Z M 31.671875 -95.984375 "/></g></g></g><g fill="#000000" fill-opacity="1"><g transform="translate(578.483082, 552.957866)"><g><path d="M 5.765625 -189.671875 L 5.765625 -191.96875 L 54.140625 -191.96875 L 54.140625 -189.671875 C 50.554688 -189.671875 47.738281 -188.773438 45.6875 -186.984375 C 43.632812 -185.191406 42.191406 -182.953125 41.359375 -180.265625 C 40.535156 -177.578125 40.023438 -174.726562 39.828125 -171.71875 C 39.640625 -168.707031 39.546875 -166.050781 39.546875 -163.75 L 39.546875 -52.40625 C 39.546875 -46.132812 40.117188 -40.054688 41.265625 -34.171875 C 42.421875 -28.285156 44.375 -23.003906 47.125 -18.328125 C 49.875 -13.660156 53.742188 -9.953125 58.734375 -7.203125 C 63.734375 -4.453125 70.070312 -3.078125 77.75 -3.078125 C 85.6875 -3.078125 93.585938 -4.066406 101.453125 -6.046875 C 109.328125 -8.023438 116.8125 -10.804688 123.90625 -14.390625 C 131.007812 -17.972656 137.25 -22.070312 142.625 -26.6875 L 142.828125 -103.65625 L 142.828125 -163.75 C 142.828125 -166.050781 142.726562 -168.707031 142.53125 -171.71875 C 142.34375 -174.726562 141.832031 -177.578125 141 -180.265625 C 140.164062 -182.953125 138.753906 -185.191406 136.765625 -186.984375 C 134.785156 -188.773438 131.941406 -189.671875 128.234375 -189.671875 L 128.234375 -191.96875 L 176.609375 -191.96875 L 176.609375 -189.671875 C 173.023438 -189.671875 170.207031 -188.773438 168.15625 -186.984375 C 166.113281 -185.191406 164.675781 -182.953125 163.84375 -180.265625 C 163.007812 -177.578125 162.492188 -174.726562 162.296875 -171.71875 C 162.109375 -168.707031 162.015625 -166.050781 162.015625 -163.75 L 162.015625 -28.21875 C 162.015625 -25.914062 162.109375 -23.257812 162.296875 -20.25 C 162.492188 -17.238281 163.007812 -14.390625 163.84375 -11.703125 C 164.675781 -9.015625 166.113281 -6.773438 168.15625 -4.984375 C 170.207031 -3.191406 173.023438 -2.296875 176.609375 -2.296875 L 176.609375 0 L 142.828125 0 L 142.828125 -22.265625 C 136.296875 -16.890625 129.382812 -12.15625 122.09375 -8.0625 C 114.800781 -3.96875 106.800781 -0.800781 98.09375 1.4375 C 89.394531 3.675781 79.476562 4.796875 68.34375 4.796875 C 53.625 4.796875 41.941406 0.253906 33.296875 -8.828125 C 24.660156 -17.910156 20.34375 -30.453125 20.34375 -46.453125 L 20.34375 -163.75 C 20.34375 -166.050781 20.242188 -168.707031 20.046875 -171.71875 C 19.859375 -174.726562 19.347656 -177.578125 18.515625 -180.265625 C 17.691406 -182.953125 16.285156 -185.191406 14.296875 -186.984375 C 12.316406 -188.773438 9.472656 -189.671875 5.765625 -189.671875 Z M 5.765625 -189.671875 "/></g></g></g><g fill="#000000" fill-opacity="1"><g transform="translate(757.201935, 552.957866)"><g><path d="M 109.234375 4.796875 C 94.898438 4.796875 81.75 2.175781 69.78125 -3.0625 C 57.8125 -8.3125 47.472656 -15.539062 38.765625 -24.75 C 30.066406 -33.96875 23.347656 -44.65625 18.609375 -56.8125 C 13.878906 -68.976562 11.515625 -82.035156 11.515625 -95.984375 C 11.515625 -109.929688 13.878906 -122.984375 18.609375 -135.140625 C 23.347656 -147.304688 30.066406 -157.992188 38.765625 -167.203125 C 47.472656 -176.421875 57.8125 -183.648438 69.78125 -188.890625 C 81.75 -194.140625 94.898438 -196.765625 109.234375 -196.765625 C 124.328125 -196.765625 135.8125 -195.960938 143.6875 -194.359375 C 151.5625 -192.765625 155.5 -191.96875 155.5 -191.96875 L 165.859375 -151.65625 L 163.5625 -151.65625 C 159.59375 -160.875 154.4375 -168.394531 148.09375 -174.21875 C 141.757812 -180.039062 134.722656 -184.328125 126.984375 -187.078125 C 119.242188 -189.828125 111.210938 -191.203125 102.890625 -191.203125 C 91.890625 -191.203125 82.226562 -189.503906 73.90625 -186.109375 C 65.59375 -182.722656 58.488281 -178.148438 52.59375 -172.390625 C 46.707031 -166.628906 41.910156 -160.226562 38.203125 -153.1875 C 34.492188 -146.144531 31.773438 -138.847656 30.046875 -131.296875 C 28.316406 -123.753906 27.453125 -116.59375 27.453125 -109.8125 C 27.453125 -98.414062 28.953125 -87.34375 31.953125 -76.59375 C 34.960938 -65.84375 39.285156 -55.828125 44.921875 -46.546875 C 50.554688 -37.273438 57.273438 -29.148438 65.078125 -22.171875 C 72.878906 -15.191406 81.613281 -9.75 91.28125 -5.84375 C 100.945312 -1.945312 111.28125 0 122.28125 0 C 130.21875 0 137.351562 -1.660156 143.6875 -4.984375 C 150.019531 -8.316406 155.617188 -12.796875 160.484375 -18.421875 L 160.484375 -58.171875 C 160.484375 -60.472656 160.382812 -63.125 160.1875 -66.125 C 160 -69.132812 159.488281 -71.984375 158.65625 -74.671875 C 157.832031 -77.359375 156.425781 -79.597656 154.4375 -81.390625 C 152.457031 -83.179688 149.609375 -84.078125 145.890625 -84.078125 L 145.890625 -86.390625 L 194.265625 -86.390625 L 194.265625 -84.078125 C 190.679688 -84.078125 187.863281 -83.179688 185.8125 -81.390625 C 183.769531 -79.597656 182.332031 -77.359375 181.5 -74.671875 C 180.675781 -71.984375 180.164062 -69.132812 179.96875 -66.125 C 179.78125 -63.125 179.6875 -60.472656 179.6875 -58.171875 L 179.6875 -22.078125 C 179.6875 -22.078125 179.078125 -21.179688 177.859375 -19.390625 C 176.640625 -17.597656 174.523438 -15.359375 171.515625 -12.671875 C 168.515625 -9.984375 164.328125 -7.296875 158.953125 -4.609375 C 153.578125 -1.921875 146.820312 0.316406 138.6875 2.109375 C 130.5625 3.898438 120.742188 4.796875 109.234375 4.796875 Z M 109.234375 4.796875 "/></g></g></g><g fill="#000000" fill-opacity="1"><g transform="translate(951.661872, 552.957866)"><g><path d="M 7.671875 0 L 7.671875 -2.296875 C 11.390625 -2.296875 14.238281 -3.191406 16.21875 -4.984375 C 18.207031 -6.773438 19.613281 -9.015625 20.4375 -11.703125 C 21.269531 -14.390625 21.78125 -17.238281 21.96875 -20.25 C 22.164062 -23.257812 22.265625 -25.914062 22.265625 -28.21875 L 22.265625 -163.75 C 22.265625 -166.050781 22.164062 -168.707031 21.96875 -171.71875 C 21.78125 -174.726562 21.269531 -177.578125 20.4375 -180.265625 C 19.613281 -182.953125 18.207031 -185.191406 16.21875 -186.984375 C 14.238281 -188.773438 11.390625 -189.671875 7.671875 -189.671875 L 7.671875 -191.96875 L 56.0625 -191.96875 L 56.0625 -189.671875 C 52.476562 -189.671875 49.660156 -188.773438 47.609375 -186.984375 C 45.554688 -185.191406 44.113281 -182.953125 43.28125 -180.265625 C 42.457031 -177.578125 41.945312 -174.726562 41.75 -171.71875 C 41.5625 -168.707031 41.46875 -166.050781 41.46875 -163.75 L 41.46875 -117.09375 L 145.703125 -117.09375 L 145.703125 -163.75 C 145.703125 -166.050781 145.601562 -168.707031 145.40625 -171.71875 C 145.21875 -174.726562 144.707031 -177.578125 143.875 -180.265625 C 143.039062 -182.953125 141.632812 -185.191406 139.65625 -186.984375 C 137.675781 -188.773438 134.828125 -189.671875 131.109375 -189.671875 L 131.109375 -191.96875 L 179.484375 -191.96875 L 179.484375 -189.671875 C 175.898438 -189.671875 173.082031 -188.773438 171.03125 -186.984375 C 168.988281 -185.191406 167.550781 -182.953125 166.71875 -180.265625 C 165.894531 -177.578125 165.382812 -174.726562 165.1875 -171.71875 C 165 -168.707031 164.90625 -166.050781 164.90625 -163.75 L 164.90625 -28.21875 C 164.90625 -25.914062 165 -23.257812 165.1875 -20.25 C 165.382812 -17.238281 165.894531 -14.390625 166.71875 -11.703125 C 167.550781 -9.015625 168.988281 -6.773438 171.03125 -4.984375 C 173.082031 -3.191406 175.898438 -2.296875 179.484375 -2.296875 L 179.484375 0 L 131.109375 0 L 131.109375 -2.296875 C 134.828125 -2.296875 137.675781 -3.191406 139.65625 -4.984375 C 141.632812 -6.773438 143.039062 -9.015625 143.875 -11.703125 C 144.707031 -14.390625 145.21875 -17.238281 145.40625 -20.25 C 145.601562 -23.257812 145.703125 -25.914062 145.703125 -28.21875 L 145.703125 -113.265625 L 41.46875 -113.265625 L 41.46875 -28.21875 C 41.46875 -25.914062 41.5625 -23.257812 41.75 -20.25 C 41.945312 -17.238281 42.457031 -14.390625 43.28125 -11.703125 C 44.113281 -9.015625 45.554688 -6.773438 47.609375 -4.984375 C 49.660156 -3.191406 52.476562 -2.296875 56.0625 -2.296875 L 56.0625 0 Z M 7.671875 0 "/></g></g></g><g fill="#000000" fill-opacity="1"><g transform="translate(1133.260156, 552.957866)"><g><path d="M 2.296875 -161.828125 L 0 -161.828125 L 0 -191.96875 L 142.4375 -191.96875 L 142.4375 -161.828125 L 140.140625 -161.828125 C 140.140625 -167.972656 138.25 -172.960938 134.46875 -176.796875 C 130.695312 -180.640625 125.738281 -183.488281 119.59375 -185.34375 C 113.445312 -187.195312 106.726562 -188.125 99.4375 -188.125 L 80.8125 -188.125 L 80.8125 -28.21875 C 80.8125 -25.914062 80.90625 -23.257812 81.09375 -20.25 C 81.289062 -17.238281 81.804688 -14.390625 82.640625 -11.703125 C 83.472656 -9.015625 84.910156 -6.773438 86.953125 -4.984375 C 89.003906 -3.191406 91.820312 -2.296875 95.40625 -2.296875 L 95.40625 0 L 47.03125 0 L 47.03125 -2.296875 C 50.738281 -2.296875 53.582031 -3.191406 55.5625 -4.984375 C 57.550781 -6.773438 58.960938 -9.015625 59.796875 -11.703125 C 60.628906 -14.390625 61.140625 -17.238281 61.328125 -20.25 C 61.523438 -23.257812 61.625 -25.914062 61.625 -28.21875 L 61.625 -188.125 L 43 -188.125 C 35.707031 -188.125 28.988281 -187.195312 22.84375 -185.34375 C 16.695312 -183.488281 11.734375 -180.640625 7.953125 -176.796875 C 4.179688 -172.960938 2.296875 -167.972656 2.296875 -161.828125 Z M 2.296875 -161.828125 "/></g></g></g><g fill="#000000" fill-opacity="1"><g transform="translate(1270.130714, 552.957866)"><g><path d="M 11.515625 -148.390625 C 11.515625 -157.859375 14.234375 -166.207031 19.671875 -173.4375 C 25.109375 -180.675781 33.234375 -186.375 44.046875 -190.53125 C 54.867188 -194.6875 68.34375 -196.765625 84.46875 -196.765625 C 99.570312 -196.765625 111.054688 -195.960938 118.921875 -194.359375 C 126.796875 -192.765625 130.734375 -191.96875 130.734375 -191.96875 L 141.09375 -151.65625 L 138.796875 -151.65625 C 135.460938 -160.488281 130.597656 -167.816406 124.203125 -173.640625 C 117.804688 -179.460938 110.609375 -183.84375 102.609375 -186.78125 C 94.609375 -189.726562 86.445312 -191.203125 78.125 -191.203125 C 64.945312 -191.203125 54.421875 -189.632812 46.546875 -186.5 C 38.679688 -183.363281 32.988281 -179.078125 29.46875 -173.640625 C 25.945312 -168.203125 24.1875 -161.960938 24.1875 -154.921875 C 24.1875 -146.859375 26.007812 -140.363281 29.65625 -135.4375 C 33.300781 -130.507812 38.195312 -126.601562 44.34375 -123.71875 C 50.488281 -120.84375 57.398438 -118.476562 65.078125 -116.625 C 72.753906 -114.769531 80.71875 -113.007812 88.96875 -111.34375 C 97.226562 -109.675781 105.195312 -107.625 112.875 -105.1875 C 120.550781 -102.757812 127.460938 -99.46875 133.609375 -95.3125 C 139.753906 -91.15625 144.648438 -85.648438 148.296875 -78.796875 C 151.941406 -71.953125 153.765625 -63.285156 153.765625 -52.796875 C 153.765625 -46.003906 152.351562 -39.21875 149.53125 -32.4375 C 146.71875 -25.65625 142.492188 -19.445312 136.859375 -13.8125 C 131.234375 -8.1875 124.289062 -3.675781 116.03125 -0.28125 C 107.78125 3.101562 98.28125 4.796875 87.53125 4.796875 C 70.894531 4.796875 56.785156 2.398438 45.203125 -2.390625 C 33.617188 -7.191406 23.609375 -13.5 15.171875 -21.3125 L 15.171875 -48.1875 L 17.46875 -48.1875 C 20.925781 -41.914062 25.210938 -35.898438 30.328125 -30.140625 C 35.453125 -24.378906 41.210938 -19.226562 47.609375 -14.6875 C 54.003906 -10.144531 60.785156 -6.5625 67.953125 -3.9375 C 75.117188 -1.3125 82.476562 0 90.03125 0 C 98.863281 0 106.507812 -1.40625 112.96875 -4.21875 C 119.4375 -7.039062 124.71875 -10.847656 128.8125 -15.640625 C 132.90625 -20.441406 135.941406 -25.816406 137.921875 -31.765625 C 139.910156 -37.722656 140.90625 -43.769531 140.90625 -49.90625 C 140.90625 -57.84375 139.082031 -64.273438 135.4375 -69.203125 C 131.789062 -74.128906 126.894531 -78.097656 120.75 -81.109375 C 114.601562 -84.117188 107.691406 -86.582031 100.015625 -88.5 C 92.335938 -90.414062 84.398438 -92.238281 76.203125 -93.96875 C 68.015625 -95.695312 60.082031 -97.742188 52.40625 -100.109375 C 44.726562 -102.472656 37.816406 -105.578125 31.671875 -109.421875 C 25.523438 -113.265625 20.628906 -118.320312 16.984375 -124.59375 C 13.335938 -130.863281 11.515625 -138.796875 11.515625 -148.390625 Z M 11.515625 -148.390625 "/></g></g></g></g></g></g></g></g></g></mask><clipPath id="5f65fe68f6"><path d="M 0.0703125 0.09375 L 1439.929688 0.09375 L 1439.929688 788.921875 L 0.0703125 788.921875 Z M 0.0703125 0.09375 " clip-rule="nonzero"/></clipPath><linearGradient x1="207.181444" gradientTransform="matrix(0.575906, 0, 0, 0.576132, 46.938134, 173.279612)" y1="1357.13859" x2="2141.851122" gradientUnits="userSpaceOnUse" y2="-577.531124" id="54055b9e45"><stop stop-opacity="1" stop-color="rgb(97.24884%, 67.83905%, 0%)" offset="0"/><stop stop-opacity="1" stop-color="rgb(97.24884%, 67.83905%, 0%)" offset="0.125"/><stop stop-opacity="1" stop-color="rgb(97.24884%, 67.83905%, 0%)" offset="0.1875"/><stop stop-opacity="1" stop-color="rgb(97.242737%, 67.805481%, 0.0137329%)" offset="0.21875"/><stop stop-opacity="1" stop-color="rgb(97.116089%, 67.138672%, 0.292969%)" offset="0.222656"/><stop stop-opacity="1" stop-color="rgb(96.99707%, 66.503906%, 0.558472%)" offset="0.226562"/><stop stop-opacity="1" stop-color="rgb(96.878052%, 65.867615%, 0.823975%)" offset="0.230469"/><stop stop-opacity="1" stop-color="rgb(96.759033%, 65.232849%, 1.089478%)" offset="0.234375"/><stop stop-opacity="1" stop-color="rgb(96.638489%, 64.596558%, 1.35498%)" offset="0.238281"/><stop stop-opacity="1" stop-color="rgb(96.51947%, 63.961792%, 1.620483%)" offset="0.242188"/><stop stop-opacity="1" stop-color="rgb(96.398926%, 63.327026%, 1.885986%)" offset="0.246094"/><stop stop-opacity="1" stop-color="rgb(96.279907%, 62.692261%, 2.151489%)" offset="0.25"/><stop stop-opacity="1" stop-color="rgb(96.159363%, 62.055969%, 2.416992%)" offset="0.253906"/><stop stop-opacity="1" stop-color="rgb(96.040344%, 61.421204%, 2.682495%)" offset="0.257812"/><stop stop-opacity="1" stop-color="rgb(95.9198%, 60.786438%, 2.947998%)" offset="0.261719"/><stop stop-opacity="1" stop-color="rgb(95.800781%, 60.151672%, 3.213501%)" offset="0.265625"/><stop stop-opacity="1" stop-color="rgb(95.681763%, 59.515381%, 3.479004%)" offset="0.269531"/><stop stop-opacity="1" stop-color="rgb(95.562744%, 58.880615%, 3.744507%)" offset="0.273438"/><stop stop-opacity="1" stop-color="rgb(95.4422%, 58.24585%, 4.01001%)" offset="0.277344"/><stop stop-opacity="1" stop-color="rgb(95.323181%, 57.611084%, 4.275513%)" offset="0.28125"/><stop stop-opacity="1" stop-color="rgb(95.202637%, 56.974792%, 4.541016%)" offset="0.285156"/><stop stop-opacity="1" stop-color="rgb(95.083618%, 56.340027%, 4.806519%)" offset="0.289062"/><stop stop-opacity="1" stop-color="rgb(94.963074%, 55.705261%, 5.072021%)" offset="0.292969"/><stop stop-opacity="1" stop-color="rgb(94.844055%, 55.070496%, 5.337524%)" offset="0.296875"/><stop stop-opacity="1" stop-color="rgb(94.723511%, 54.434204%, 5.603027%)" offset="0.300781"/><stop stop-opacity="1" stop-color="rgb(94.604492%, 53.799438%, 5.86853%)" offset="0.304688"/><stop stop-opacity="1" stop-color="rgb(94.485474%, 53.164673%, 6.134033%)" offset="0.308594"/><stop stop-opacity="1" stop-color="rgb(94.366455%, 52.529907%, 6.399536%)" offset="0.3125"/><stop stop-opacity="1" stop-color="rgb(94.245911%, 51.893616%, 6.665039%)" offset="0.316406"/><stop stop-opacity="1" stop-color="rgb(94.126892%, 51.25885%, 6.930542%)" offset="0.320312"/><stop stop-opacity="1" stop-color="rgb(94.006348%, 50.624084%, 7.196045%)" offset="0.324219"/><stop stop-opacity="1" stop-color="rgb(93.887329%, 49.989319%, 7.461548%)" offset="0.328125"/><stop stop-opacity="1" stop-color="rgb(93.766785%, 49.353027%, 7.727051%)" offset="0.332031"/><stop stop-opacity="1" stop-color="rgb(93.647766%, 48.718262%, 7.992554%)" offset="0.335938"/><stop stop-opacity="1" stop-color="rgb(93.527222%, 48.083496%, 8.258057%)" offset="0.339844"/><stop stop-opacity="1" stop-color="rgb(93.408203%, 47.44873%, 8.52356%)" offset="0.34375"/><stop stop-opacity="1" stop-color="rgb(93.289185%, 46.812439%, 8.789062%)" offset="0.347656"/><stop stop-opacity="1" stop-color="rgb(93.170166%, 46.177673%, 9.054565%)" offset="0.351562"/><stop stop-opacity="1" stop-color="rgb(93.049622%, 45.542908%, 9.320068%)" offset="0.355469"/><stop stop-opacity="1" stop-color="rgb(92.930603%, 44.908142%, 9.585571%)" offset="0.359375"/><stop stop-opacity="1" stop-color="rgb(92.810059%, 44.271851%, 9.851074%)" offset="0.363281"/><stop stop-opacity="1" stop-color="rgb(92.69104%, 43.637085%, 10.116577%)" offset="0.367188"/><stop stop-opacity="1" stop-color="rgb(92.570496%, 43.002319%, 10.38208%)" offset="0.371094"/><stop stop-opacity="1" stop-color="rgb(92.451477%, 42.367554%, 10.647583%)" offset="0.375"/><stop stop-opacity="1" stop-color="rgb(92.330933%, 41.731262%, 10.913086%)" offset="0.378906"/><stop stop-opacity="1" stop-color="rgb(92.211914%, 41.096497%, 11.178589%)" offset="0.382812"/><stop stop-opacity="1" stop-color="rgb(92.092896%, 40.461731%, 11.444092%)" offset="0.386719"/><stop stop-opacity="1" stop-color="rgb(91.973877%, 39.826965%, 11.709595%)" offset="0.390625"/><stop stop-opacity="1" stop-color="rgb(91.853333%, 39.190674%, 11.975098%)" offset="0.394531"/><stop stop-opacity="1" stop-color="rgb(91.734314%, 38.555908%, 12.242126%)" offset="0.398438"/><stop stop-opacity="1" stop-color="rgb(91.61377%, 37.921143%, 12.507629%)" offset="0.402344"/><stop stop-opacity="1" stop-color="rgb(91.494751%, 37.286377%, 12.773132%)" offset="0.40625"/><stop stop-opacity="1" stop-color="rgb(91.374207%, 36.650085%, 13.038635%)" offset="0.410156"/><stop stop-opacity="1" stop-color="rgb(91.255188%, 36.01532%, 13.304138%)" offset="0.414063"/><stop stop-opacity="1" stop-color="rgb(91.136169%, 35.380554%, 13.569641%)" offset="0.417969"/><stop stop-opacity="1" stop-color="rgb(91.017151%, 34.745789%, 13.835144%)" offset="0.421875"/><stop stop-opacity="1" stop-color="rgb(90.896606%, 34.109497%, 14.100647%)" offset="0.425781"/><stop stop-opacity="1" stop-color="rgb(90.777588%, 33.474731%, 14.36615%)" offset="0.429688"/><stop stop-opacity="1" stop-color="rgb(90.657043%, 32.839966%, 14.631653%)" offset="0.433594"/><stop stop-opacity="1" stop-color="rgb(90.538025%, 32.2052%, 14.897156%)" offset="0.4375"/><stop stop-opacity="1" stop-color="rgb(90.41748%, 31.568909%, 15.162659%)" offset="0.441406"/><stop stop-opacity="1" stop-color="rgb(90.298462%, 30.934143%, 15.428162%)" offset="0.445312"/><stop stop-opacity="1" stop-color="rgb(90.177917%, 30.297852%, 15.693665%)" offset="0.449219"/><stop stop-opacity="1" stop-color="rgb(90.058899%, 29.663086%, 15.959167%)" offset="0.453125"/><stop stop-opacity="1" stop-color="rgb(89.93988%, 29.02832%, 16.22467%)" offset="0.457031"/><stop stop-opacity="1" stop-color="rgb(89.820862%, 28.393555%, 16.490173%)" offset="0.460938"/><stop stop-opacity="1" stop-color="rgb(89.700317%, 27.757263%, 16.755676%)" offset="0.464844"/><stop stop-opacity="1" stop-color="rgb(89.581299%, 27.122498%, 17.021179%)" offset="0.46875"/><stop stop-opacity="1" stop-color="rgb(89.460754%, 26.487732%, 17.286682%)" offset="0.472656"/><stop stop-opacity="1" stop-color="rgb(89.341736%, 25.852966%, 17.552185%)" offset="0.476563"/><stop stop-opacity="1" stop-color="rgb(89.221191%, 25.216675%, 17.817688%)" offset="0.480469"/><stop stop-opacity="1" stop-color="rgb(89.102173%, 24.581909%, 18.083191%)" offset="0.484375"/><stop stop-opacity="1" stop-color="rgb(88.981628%, 23.947144%, 18.348694%)" offset="0.488281"/><stop stop-opacity="1" stop-color="rgb(88.86261%, 23.312378%, 18.614197%)" offset="0.492188"/><stop stop-opacity="1" stop-color="rgb(88.743591%, 22.676086%, 18.8797%)" offset="0.496094"/><stop stop-opacity="1" stop-color="rgb(88.624573%, 22.041321%, 19.145203%)" offset="0.5"/><stop stop-opacity="1" stop-color="rgb(88.504028%, 21.406555%, 19.410706%)" offset="0.503906"/><stop stop-opacity="1" stop-color="rgb(88.38501%, 20.77179%, 19.676208%)" offset="0.507812"/><stop stop-opacity="1" stop-color="rgb(87.968445%, 20.579529%, 20.252991%)" offset="0.511719"/><stop stop-opacity="1" stop-color="rgb(87.553406%, 20.387268%, 20.831299%)" offset="0.515625"/><stop stop-opacity="1" stop-color="rgb(86.677551%, 20.881653%, 21.893311%)" offset="0.519531"/><stop stop-opacity="1" stop-color="rgb(85.803223%, 21.376038%, 22.956848%)" offset="0.523438"/><stop stop-opacity="1" stop-color="rgb(84.928894%, 21.870422%, 24.01886%)" offset="0.527344"/><stop stop-opacity="1" stop-color="rgb(84.054565%, 22.364807%, 25.080872%)" offset="0.53125"/><stop stop-opacity="1" stop-color="rgb(83.178711%, 22.859192%, 26.142883%)" offset="0.535156"/><stop stop-opacity="1" stop-color="rgb(82.304382%, 23.355103%, 27.204895%)" offset="0.539062"/><stop stop-opacity="1" stop-color="rgb(81.428528%, 23.849487%, 28.266907%)" offset="0.542969"/><stop stop-opacity="1" stop-color="rgb(80.554199%, 24.343872%, 29.328918%)" offset="0.546875"/><stop stop-opacity="1" stop-color="rgb(79.679871%, 24.838257%, 30.39093%)" offset="0.550781"/><stop stop-opacity="1" stop-color="rgb(78.805542%, 25.332642%, 31.452942%)" offset="0.554688"/><stop stop-opacity="1" stop-color="rgb(77.929688%, 25.827026%, 32.514954%)" offset="0.558594"/><stop stop-opacity="1" stop-color="rgb(77.055359%, 26.321411%, 33.578491%)" offset="0.5625"/><stop stop-opacity="1" stop-color="rgb(76.18103%, 26.815796%, 34.640503%)" offset="0.566406"/><stop stop-opacity="1" stop-color="rgb(75.306702%, 27.310181%, 35.702515%)" offset="0.570312"/><stop stop-opacity="1" stop-color="rgb(74.430847%, 27.804565%, 36.764526%)" offset="0.574219"/><stop stop-opacity="1" stop-color="rgb(73.556519%, 28.300476%, 37.826538%)" offset="0.578125"/><stop stop-opacity="1" stop-color="rgb(72.680664%, 28.794861%, 38.88855%)" offset="0.582031"/><stop stop-opacity="1" stop-color="rgb(71.806335%, 29.289246%, 39.950562%)" offset="0.585938"/><stop stop-opacity="1" stop-color="rgb(70.932007%, 29.78363%, 41.012573%)" offset="0.589844"/><stop stop-opacity="1" stop-color="rgb(70.057678%, 30.278015%, 42.074585%)" offset="0.59375"/><stop stop-opacity="1" stop-color="rgb(69.181824%, 30.7724%, 43.136597%)" offset="0.597656"/><stop stop-opacity="1" stop-color="rgb(68.307495%, 31.266785%, 44.198608%)" offset="0.601562"/><stop stop-opacity="1" stop-color="rgb(67.431641%, 31.761169%, 45.26062%)" offset="0.605469"/><stop stop-opacity="1" stop-color="rgb(66.557312%, 32.25708%, 46.324158%)" offset="0.609375"/><stop stop-opacity="1" stop-color="rgb(65.682983%, 32.751465%, 47.386169%)" offset="0.613281"/><stop stop-opacity="1" stop-color="rgb(64.808655%, 33.24585%, 48.448181%)" offset="0.617188"/><stop stop-opacity="1" stop-color="rgb(63.9328%, 33.740234%, 49.510193%)" offset="0.621094"/><stop stop-opacity="1" stop-color="rgb(63.058472%, 34.234619%, 50.572205%)" offset="0.625"/><stop stop-opacity="1" stop-color="rgb(62.184143%, 34.729004%, 51.634216%)" offset="0.628906"/><stop stop-opacity="1" stop-color="rgb(61.309814%, 35.223389%, 52.696228%)" offset="0.632812"/><stop stop-opacity="1" stop-color="rgb(60.43396%, 35.717773%, 53.75824%)" offset="0.636719"/><stop stop-opacity="1" stop-color="rgb(59.559631%, 36.213684%, 54.820251%)" offset="0.640625"/><stop stop-opacity="1" stop-color="rgb(58.683777%, 36.708069%, 55.882263%)" offset="0.644531"/><stop stop-opacity="1" stop-color="rgb(57.809448%, 37.202454%, 56.944275%)" offset="0.648438"/><stop stop-opacity="1" stop-color="rgb(56.93512%, 37.696838%, 58.006287%)" offset="0.652344"/><stop stop-opacity="1" stop-color="rgb(56.060791%, 38.191223%, 59.069824%)" offset="0.65625"/><stop stop-opacity="1" stop-color="rgb(55.184937%, 38.685608%, 60.131836%)" offset="0.660156"/><stop stop-opacity="1" stop-color="rgb(54.310608%, 39.179993%, 61.193848%)" offset="0.664062"/><stop stop-opacity="1" stop-color="rgb(53.434753%, 39.674377%, 62.255859%)" offset="0.667969"/><stop stop-opacity="1" stop-color="rgb(52.560425%, 40.168762%, 63.317871%)" offset="0.671875"/><stop stop-opacity="1" stop-color="rgb(51.686096%, 40.663147%, 64.379883%)" offset="0.675781"/><stop stop-opacity="1" stop-color="rgb(50.811768%, 41.159058%, 65.441895%)" offset="0.679688"/><stop stop-opacity="1" stop-color="rgb(49.935913%, 41.653442%, 66.503906%)" offset="0.683594"/><stop stop-opacity="1" stop-color="rgb(49.061584%, 42.147827%, 67.565918%)" offset="0.6875"/><stop stop-opacity="1" stop-color="rgb(48.187256%, 42.642212%, 68.62793%)" offset="0.691406"/><stop stop-opacity="1" stop-color="rgb(47.312927%, 43.136597%, 69.689941%)" offset="0.695312"/><stop stop-opacity="1" stop-color="rgb(46.437073%, 43.630981%, 70.751953%)" offset="0.699219"/><stop stop-opacity="1" stop-color="rgb(45.562744%, 44.125366%, 71.815491%)" offset="0.703125"/><stop stop-opacity="1" stop-color="rgb(44.68689%, 44.619751%, 72.877502%)" offset="0.707031"/><stop stop-opacity="1" stop-color="rgb(43.812561%, 45.115662%, 73.939514%)" offset="0.710938"/><stop stop-opacity="1" stop-color="rgb(42.938232%, 45.610046%, 75.001526%)" offset="0.714844"/><stop stop-opacity="1" stop-color="rgb(42.063904%, 46.104431%, 76.063538%)" offset="0.71875"/><stop stop-opacity="1" stop-color="rgb(41.188049%, 46.598816%, 77.125549%)" offset="0.722656"/><stop stop-opacity="1" stop-color="rgb(40.313721%, 47.093201%, 78.187561%)" offset="0.726562"/><stop stop-opacity="1" stop-color="rgb(39.437866%, 47.587585%, 79.249573%)" offset="0.730469"/><stop stop-opacity="1" stop-color="rgb(38.563538%, 48.08197%, 80.311584%)" offset="0.734375"/><stop stop-opacity="1" stop-color="rgb(37.689209%, 48.576355%, 81.373596%)" offset="0.738281"/><stop stop-opacity="1" stop-color="rgb(36.81488%, 49.07074%, 82.435608%)" offset="0.742188"/><stop stop-opacity="1" stop-color="rgb(35.939026%, 49.565125%, 83.49762%)" offset="0.746094"/><stop stop-opacity="1" stop-color="rgb(35.064697%, 50.061035%, 84.561157%)" offset="0.75"/><stop stop-opacity="1" stop-color="rgb(34.190369%, 50.55542%, 85.623169%)" offset="0.753906"/><stop stop-opacity="1" stop-color="rgb(33.31604%, 51.049805%, 86.685181%)" offset="0.757812"/><stop stop-opacity="1" stop-color="rgb(32.440186%, 51.544189%, 87.747192%)" offset="0.761719"/><stop stop-opacity="1" stop-color="rgb(31.565857%, 52.038574%, 88.809204%)" offset="0.765625"/><stop stop-opacity="1" stop-color="rgb(30.690002%, 52.532959%, 89.871216%)" offset="0.769531"/><stop stop-opacity="1" stop-color="rgb(29.815674%, 53.027344%, 90.933228%)" offset="0.773438"/><stop stop-opacity="1" stop-color="rgb(28.941345%, 53.521729%, 91.995239%)" offset="0.777344"/><stop stop-opacity="1" stop-color="rgb(28.067017%, 54.017639%, 93.057251%)" offset="0.78125"/><stop stop-opacity="1" stop-color="rgb(27.191162%, 54.512024%, 94.119263%)" offset="0.785156"/><stop stop-opacity="1" stop-color="rgb(26.316833%, 55.006409%, 95.181274%)" offset="0.789062"/><stop stop-opacity="1" stop-color="rgb(25.440979%, 55.500793%, 96.243286%)" offset="0.792969"/><stop stop-opacity="1" stop-color="rgb(24.56665%, 55.995178%, 97.306824%)" offset="0.796875"/><stop stop-opacity="1" stop-color="rgb(23.692322%, 56.489563%, 98.368835%)" offset="0.800781"/><stop stop-opacity="1" stop-color="rgb(22.817993%, 56.983948%, 99.430847%)" offset="0.804688"/><stop stop-opacity="1" stop-color="rgb(22.583008%, 57.116699%, 99.714661%)" offset="0.808594"/><stop stop-opacity="1" stop-color="rgb(22.349548%, 57.249451%, 100%)" offset="0.8125"/><stop stop-opacity="1" stop-color="rgb(22.349548%, 57.249451%, 100%)" offset="0.875"/><stop stop-opacity="1" stop-color="rgb(22.349548%, 57.249451%, 100%)" offset="1"/></linearGradient><clipPath id="2119f95057"><rect x="0" width="1440" y="0" height="789"/></clipPath><clipPath id="d1239f7036"><rect x="0" width="1440" y="0" height="789"/></clipPath><clipPath id="5f6575fae4"><rect x="0" width="1440" y="0" height="810"/></clipPath></defs><g clip-path="url(#6337cbfb2a)"><g transform="matrix(1, 0, 0, 1, 0.000000000000000014, 0.000000000000090728)"><g clip-path="url(#5f6575fae4)"><g clip-path="url(#47bc6105dc)"><g transform="matrix(1, 0, 0, 1, 0.000000000000000014, 0.000000000000090728)"><g clip-path="url(#cd70c21e5c)"><g clip-path="url(#642e556d20)"><g mask="url(#f840b0d1d2)"><g transform="matrix(1, 0, 0, 1, 0.000000000000000014, 0.000000000000090728)"><g clip-path="url(#226b3d9462)"><g clip-path="url(#50dccb81da)"><path fill="url(#915eab2798)" d="M 0.0703125 0 L 0.0703125 789.34375 L 1439.929688 789.34375 L 1439.929688 0 Z M 0.0703125 0 " fill-rule="nonzero"/></g></g></g></g></g></g></g></g><g clip-path="url(#688b8dd322)"><g transform="matrix(1, 0, 0, 1, 0.000000000000000014, 21)"><g clip-path="url(#d1239f7036)"><g clip-path="url(#2bbb8aea5e)"><g mask="url(#c359cb0670)"><g transform="matrix(1, 0, 0, 1, 0.000000000000000014, 0.000000000000088818)"><g clip-path="url(#2119f95057)"><g clip-path="url(#5f65fe68f6)"><path fill="url(#54055b9e45)" d="M 0.0703125 0.09375 L 0.0703125 788.921875 L 1439.929688 788.921875 L 1439.929688 0.09375 Z M 0.0703125 0.09375 " fill-rule="nonzero"/></g></g></g></g></g></g></g></g></g></g></g></svg>