<svg xmlns="http://www.w3.org/2000/svg" xmlns:xlink="http://www.w3.org/1999/xlink" width="1920" zoomAndPan="magnify" viewBox="0 0 1440 817.92" height="1080" preserveAspectRatio="xMidYMid meet" version="1.0"><defs><g/><clipPath id="55bac22bcc"><path d="M 0.699219 0.875 L 1255 0.875 L 1255 627 L 0.699219 627 Z M 0.699219 0.875 " clip-rule="nonzero"/></clipPath><clipPath id="c6c6cebf27"><rect x="0" width="1255" y="0" height="627"/></clipPath><clipPath id="d2d19122cd"><rect x="0" width="1254" y="0" height="627"/></clipPath><clipPath id="351c4358f7"><path d="M 11 11 L 1265.136719 11 L 1265.136719 637.53125 L 11 637.53125 Z M 11 11 " clip-rule="nonzero"/></clipPath><clipPath id="642fe633c9"><rect x="0" width="1255" y="0" height="627"/></clipPath><clipPath id="cd79369b7f"><rect x="0" width="1266" y="0" height="638"/></clipPath></defs><g transform="matrix(1, 0, 0, 1, 104, 56)"><g clip-path="url(#cd79369b7f)"><g clip-path="url(#55bac22bcc)"><g transform="matrix(1, 0, 0, 1, 0, 0.000000000000092371)"><g clip-path="url(#c6c6cebf27)"><g fill="#7a2f00" fill-opacity="1"><g transform="translate(1.308556, 391.041004)"><g><path d="M 53.390625 108.28125 C 42.992188 108.28125 33.84375 105.679688 25.9375 100.484375 C 18.039062 95.285156 11.84375 88.335938 7.34375 79.640625 C 2.84375 70.941406 0.59375 61.492188 0.59375 51.296875 C 0.59375 39.492188 1.941406 25.289062 4.640625 8.6875 C 7.347656 -7.902344 11.097656 -26.148438 15.890625 -46.046875 C 20.691406 -65.941406 26.242188 -86.488281 32.546875 -107.6875 C 38.847656 -128.882812 45.5 -149.984375 52.5 -170.984375 C 59.5 -191.984375 66.597656 -212.03125 73.796875 -231.125 C 80.992188 -250.21875 88.039062 -267.460938 94.9375 -282.859375 C 101.832031 -298.265625 108.082031 -310.867188 113.6875 -320.671875 C 115.082031 -322.867188 117.628906 -323.816406 121.328125 -323.515625 C 125.035156 -323.210938 129.488281 -322.460938 134.6875 -321.265625 C 139.882812 -320.066406 144.484375 -318.515625 148.484375 -316.609375 C 152.484375 -314.710938 154.285156 -312.664062 153.890625 -310.46875 C 153.679688 -309.269531 152.128906 -308.519531 149.234375 -308.21875 C 146.335938 -307.914062 142.285156 -305.863281 137.078125 -302.0625 C 131.484375 -298.0625 125.285156 -290.160156 118.484375 -278.359375 C 111.679688 -266.566406 104.628906 -252.019531 97.328125 -234.71875 C 90.035156 -217.425781 82.738281 -198.476562 75.4375 -177.875 C 68.144531 -157.28125 61.195312 -136.1875 54.59375 -114.59375 C 43.789062 -78.988281 34.941406 -48.285156 28.046875 -22.484375 C 21.148438 3.304688 17.703125 26.097656 17.703125 45.890625 C 17.703125 65.492188 20.550781 79.34375 26.25 87.4375 C 31.945312 95.539062 40.59375 99.59375 52.1875 99.59375 C 62.789062 99.59375 73.890625 98.191406 85.484375 95.390625 C 97.085938 92.585938 108.6875 88.9375 120.28125 84.4375 C 131.882812 79.9375 142.984375 75.132812 153.578125 70.03125 C 164.179688 64.9375 173.878906 59.988281 182.671875 55.1875 C 191.472656 50.394531 198.675781 46.296875 204.28125 42.890625 C 204.875 42.492188 206.222656 42.296875 208.328125 42.296875 C 210.429688 42.296875 212.378906 42.492188 214.171875 42.890625 C 215.972656 43.296875 216.972656 44 217.171875 45 C 217.378906 46 216.082031 47.394531 213.28125 49.1875 C 204.28125 54.988281 193.328125 61.289062 180.421875 68.09375 C 167.523438 74.894531 153.726562 81.34375 139.03125 87.4375 C 124.332031 93.539062 109.632812 98.539062 94.9375 102.4375 C 80.238281 106.332031 66.390625 108.28125 53.390625 108.28125 Z M 53.390625 108.28125 "/></g></g></g><g fill="#7a2f00" fill-opacity="1"><g transform="translate(209.48787, 391.041004)"><g><path d="M 342.265625 -72 C 342.660156 -68.59375 339.160156 -65.988281 331.765625 -64.1875 C 328.160156 -63.394531 324.257812 -62.75 320.0625 -62.25 C 315.863281 -61.75 312.066406 -61.5 308.671875 -61.5 C 301.867188 -61.5 294.816406 -61.847656 287.515625 -62.546875 C 280.222656 -63.242188 272.773438 -63.992188 265.171875 -64.796875 C 263.773438 -45.398438 263.125 -25.648438 263.21875 -5.546875 C 263.320312 14.542969 264.375 34.289062 266.375 53.6875 C 267.96875 67.882812 270.863281 79.285156 275.0625 87.890625 C 279.269531 96.492188 283.972656 102.84375 289.171875 106.9375 C 294.367188 111.039062 299.066406 113.691406 303.265625 114.890625 C 307.671875 115.890625 309.769531 116.835938 309.5625 117.734375 C 309.363281 118.640625 307.765625 119.191406 304.765625 119.390625 C 301.765625 119.585938 298.066406 119.285156 293.671875 118.484375 C 290.472656 117.890625 286.421875 116.390625 281.515625 113.984375 C 276.617188 111.585938 271.570312 107.640625 266.375 102.140625 C 261.175781 96.640625 256.523438 89.140625 252.421875 79.640625 C 248.328125 70.140625 245.378906 57.992188 243.578125 43.203125 C 242.171875 31.992188 241.21875 16.789062 240.71875 -2.40625 C 240.21875 -21.601562 240.96875 -43.597656 242.96875 -68.390625 C 228.375 -70.585938 213.925781 -72.984375 199.625 -75.578125 C 185.332031 -78.179688 171.882812 -79.984375 159.28125 -80.984375 C 135.28125 -51.191406 114.78125 -26.742188 97.78125 -7.640625 C 80.789062 11.449219 67.144531 26.144531 56.84375 36.4375 C 46.539062 46.738281 39.390625 53.789062 35.390625 57.59375 C 30.390625 62.394531 25.890625 64.191406 21.890625 62.984375 C 17.890625 61.785156 13.59375 59.6875 9 56.6875 C 4.800781 53.6875 1.152344 50.535156 -1.9375 47.234375 C -5.039062 43.941406 -5.992188 41.394531 -4.796875 39.59375 C -3.992188 38.59375 -2.195312 38.441406 0.59375 39.140625 C 3.394531 39.847656 7.894531 39.398438 14.09375 37.796875 C 19.5 36.398438 28.597656 30.800781 41.390625 21 C 54.191406 11.195312 69.640625 -2.398438 87.734375 -19.796875 C 105.835938 -37.191406 125.488281 -57.890625 146.6875 -81.890625 L 139.78125 -81.890625 C 128.988281 -81.890625 120.289062 -81.738281 113.6875 -81.4375 C 107.09375 -81.132812 101.84375 -80.734375 97.9375 -80.234375 C 94.039062 -79.734375 90.691406 -78.984375 87.890625 -77.984375 C 83.285156 -76.390625 79.984375 -74.992188 77.984375 -73.796875 C 75.984375 -72.597656 73.882812 -72 71.6875 -72 C 70.289062 -72 68.941406 -73.046875 67.640625 -75.140625 C 66.335938 -77.242188 65.585938 -79.644531 65.390625 -82.34375 C 65.191406 -85.039062 65.992188 -87.289062 67.796875 -89.09375 C 69.191406 -90.488281 72.039062 -91.6875 76.34375 -92.6875 C 80.644531 -93.6875 85.09375 -94.535156 89.6875 -95.234375 C 94.289062 -95.941406 97.691406 -96.296875 99.890625 -96.296875 C 108.085938 -96.296875 116.734375 -95.742188 125.828125 -94.640625 C 134.929688 -93.535156 144.484375 -92.1875 154.484375 -90.59375 C 173.679688 -112.59375 193.425781 -136.9375 213.71875 -163.625 C 234.019531 -190.320312 254.070312 -218.972656 273.875 -249.578125 C 277.46875 -255.171875 280.414062 -261.117188 282.71875 -267.421875 C 285.019531 -273.722656 286.46875 -279.570312 287.0625 -284.96875 C 287.269531 -288.570312 286.972656 -291.769531 286.171875 -294.5625 C 285.367188 -296.96875 285.769531 -300.171875 287.375 -304.171875 C 289.375 -309.367188 291.421875 -315.113281 293.515625 -321.40625 C 295.617188 -327.707031 297.671875 -333.707031 299.671875 -339.40625 C 301.671875 -345.113281 303.566406 -349.765625 305.359375 -353.359375 C 307.160156 -356.960938 308.765625 -358.765625 310.171875 -358.765625 C 313.171875 -358.765625 316.019531 -357.5625 318.71875 -355.15625 C 321.414062 -352.757812 322.765625 -350.0625 322.765625 -347.0625 C 322.765625 -345.664062 321.863281 -342.414062 320.0625 -337.3125 C 318.257812 -332.21875 316.160156 -326.46875 313.765625 -320.0625 C 311.367188 -313.664062 309.171875 -307.765625 307.171875 -302.359375 C 305.171875 -296.960938 303.867188 -293.066406 303.265625 -290.671875 C 303.066406 -289.265625 301.867188 -284.460938 299.671875 -276.265625 C 297.472656 -268.066406 294.820312 -257.066406 291.71875 -243.265625 C 288.613281 -229.472656 285.410156 -213.578125 282.109375 -195.578125 C 278.816406 -177.578125 275.671875 -158.128906 272.671875 -137.234375 C 269.671875 -116.335938 267.367188 -94.59375 265.765625 -72 C 273.367188 -71.195312 280.921875 -70.546875 288.421875 -70.046875 C 295.921875 -69.546875 303.367188 -69.296875 310.765625 -69.296875 C 318.765625 -69.296875 324.460938 -69.691406 327.859375 -70.484375 C 331.265625 -71.285156 333.367188 -72.390625 334.171875 -73.796875 C 334.960938 -75.191406 335.457031 -76.640625 335.65625 -78.140625 C 335.863281 -79.640625 336.265625 -80.488281 336.859375 -80.6875 C 337.460938 -80.882812 338.460938 -79.832031 339.859375 -77.53125 C 341.265625 -75.238281 342.066406 -73.394531 342.265625 -72 Z M 165.578125 -88.796875 C 177.984375 -86.796875 190.679688 -84.546875 203.671875 -82.046875 C 216.671875 -79.546875 229.875 -77.191406 243.28125 -74.984375 C 245.28125 -97.984375 248.578125 -122.734375 253.171875 -149.234375 C 257.773438 -175.734375 264.273438 -203.179688 272.671875 -231.578125 C 252.078125 -202.773438 232.828125 -176.523438 214.921875 -152.828125 C 197.023438 -129.128906 180.578125 -107.785156 165.578125 -88.796875 Z M 165.578125 -88.796875 "/></g></g></g><g fill="#7a2f00" fill-opacity="1"><g transform="translate(557.453296, 391.041004)"><g><path d="M -24 99.296875 C -28.195312 99.296875 -32.992188 98.394531 -38.390625 96.59375 C -43.796875 94.789062 -49.097656 91.9375 -54.296875 88.03125 C -59.492188 84.132812 -63.789062 78.882812 -67.1875 72.28125 C -70.59375 65.6875 -72.296875 57.59375 -72.296875 48 C -72.296875 38.195312 -68.992188 26.492188 -62.390625 12.890625 C -55.796875 -0.699219 -46.796875 -15.644531 -35.390625 -31.9375 C -23.992188 -48.238281 -10.945312 -65.335938 3.75 -83.234375 C 18.445312 -101.140625 33.894531 -119.335938 50.09375 -137.828125 C 66.289062 -156.328125 82.535156 -174.523438 98.828125 -192.421875 C 115.128906 -210.328125 130.628906 -227.425781 145.328125 -243.71875 C 160.023438 -260.019531 173.070312 -274.921875 184.46875 -288.421875 C 195.875 -301.921875 204.875 -313.46875 211.46875 -323.0625 C 218.070312 -332.664062 221.375 -339.765625 221.375 -344.359375 C 221.375 -347.160156 220.820312 -349.0625 219.71875 -350.0625 C 218.625 -351.0625 216.378906 -351.5625 212.984375 -351.5625 C 204.773438 -351.5625 194.171875 -349.507812 181.171875 -345.40625 C 168.179688 -341.3125 153.785156 -335.515625 137.984375 -328.015625 C 122.179688 -320.515625 106.128906 -311.664062 89.828125 -301.46875 C 73.535156 -291.269531 57.789062 -280.117188 42.59375 -268.015625 C 27.394531 -255.921875 13.894531 -243.125 2.09375 -229.625 C -9.695312 -216.125 -18.796875 -202.375 -25.203125 -188.375 C -25.992188 -186.375 -27.835938 -185.472656 -30.734375 -185.671875 C -33.640625 -185.878906 -36.390625 -187.378906 -38.984375 -190.171875 C -41.585938 -192.972656 -42.890625 -197.273438 -42.890625 -203.078125 C -42.890625 -205.472656 -39.738281 -210.21875 -33.4375 -217.3125 C -27.144531 -224.414062 -18.445312 -232.914062 -7.34375 -242.8125 C 3.746094 -252.71875 16.34375 -263.269531 30.4375 -274.46875 C 44.539062 -285.664062 59.441406 -296.664062 75.140625 -307.46875 C 90.835938 -318.269531 106.582031 -328.066406 122.375 -336.859375 C 138.175781 -345.660156 153.226562 -352.710938 167.53125 -358.015625 C 181.832031 -363.316406 194.484375 -365.96875 205.484375 -365.96875 C 215.484375 -365.96875 223.128906 -362.164062 228.421875 -354.5625 C 233.722656 -346.96875 236.375 -338.066406 236.375 -327.859375 C 236.375 -322.265625 233.070312 -314.367188 226.46875 -304.171875 C 219.875 -293.972656 210.925781 -282.125 199.625 -268.625 C 188.332031 -255.125 175.382812 -240.320312 160.78125 -224.21875 C 146.1875 -208.125 130.835938 -191.328125 114.734375 -173.828125 C 98.640625 -156.328125 82.492188 -138.53125 66.296875 -120.4375 C 50.097656 -102.34375 34.695312 -84.492188 20.09375 -66.890625 C 5.5 -49.296875 -7.445312 -32.347656 -18.75 -16.046875 C -30.050781 0.253906 -39 15.398438 -45.59375 29.390625 C -52.195312 43.390625 -55.5 55.691406 -55.5 66.296875 C -55.5 70.890625 -54 74.335938 -51 76.640625 C -48 78.941406 -43.097656 79.890625 -36.296875 79.484375 C -23.691406 78.691406 -10.394531 75.992188 3.59375 71.390625 C 17.59375 66.796875 31.742188 60.945312 46.046875 53.84375 C 60.347656 46.75 74.347656 38.898438 88.046875 30.296875 C 101.742188 21.691406 114.640625 12.941406 126.734375 4.046875 C 138.835938 -4.847656 149.6875 -13.296875 159.28125 -21.296875 C 168.882812 -29.296875 176.734375 -36.296875 182.828125 -42.296875 C 188.929688 -48.296875 192.679688 -52.695312 194.078125 -55.5 C 195.078125 -57.09375 196.328125 -57.640625 197.828125 -57.140625 C 199.328125 -56.640625 200.726562 -55.640625 202.03125 -54.140625 C 203.332031 -52.640625 203.984375 -50.988281 203.984375 -49.1875 C 203.984375 -48.394531 201.378906 -45.144531 196.171875 -39.4375 C 190.972656 -33.738281 183.722656 -26.441406 174.421875 -17.546875 C 165.128906 -8.648438 154.382812 0.992188 142.1875 11.390625 C 129.988281 21.796875 116.890625 32.144531 102.890625 42.4375 C 88.890625 52.738281 74.539062 62.1875 59.84375 70.78125 C 45.144531 79.382812 30.644531 86.285156 16.34375 91.484375 C 2.050781 96.691406 -11.394531 99.296875 -24 99.296875 Z M -24 99.296875 "/></g></g></g><g fill="#7a2f00" fill-opacity="1"><g transform="translate(771.632046, 391.041004)"><g><path d="M 53.390625 108.28125 C 42.992188 108.28125 33.84375 105.679688 25.9375 100.484375 C 18.039062 95.285156 11.84375 88.335938 7.34375 79.640625 C 2.84375 70.941406 0.59375 61.492188 0.59375 51.296875 C 0.59375 39.492188 1.941406 25.289062 4.640625 8.6875 C 7.347656 -7.902344 11.097656 -26.148438 15.890625 -46.046875 C 20.691406 -65.941406 26.242188 -86.488281 32.546875 -107.6875 C 38.847656 -128.882812 45.5 -149.984375 52.5 -170.984375 C 59.5 -191.984375 66.597656 -212.03125 73.796875 -231.125 C 80.992188 -250.21875 88.039062 -267.460938 94.9375 -282.859375 C 101.832031 -298.265625 108.082031 -310.867188 113.6875 -320.671875 C 115.082031 -322.867188 117.628906 -323.816406 121.328125 -323.515625 C 125.035156 -323.210938 129.488281 -322.460938 134.6875 -321.265625 C 139.882812 -320.066406 144.484375 -318.515625 148.484375 -316.609375 C 152.484375 -314.710938 154.285156 -312.664062 153.890625 -310.46875 C 153.679688 -309.269531 152.128906 -308.519531 149.234375 -308.21875 C 146.335938 -307.914062 142.285156 -305.863281 137.078125 -302.0625 C 131.484375 -298.0625 125.285156 -290.160156 118.484375 -278.359375 C 111.679688 -266.566406 104.628906 -252.019531 97.328125 -234.71875 C 90.035156 -217.425781 82.738281 -198.476562 75.4375 -177.875 C 68.144531 -157.28125 61.195312 -136.1875 54.59375 -114.59375 C 43.789062 -78.988281 34.941406 -48.285156 28.046875 -22.484375 C 21.148438 3.304688 17.703125 26.097656 17.703125 45.890625 C 17.703125 65.492188 20.550781 79.34375 26.25 87.4375 C 31.945312 95.539062 40.59375 99.59375 52.1875 99.59375 C 62.789062 99.59375 73.890625 98.191406 85.484375 95.390625 C 97.085938 92.585938 108.6875 88.9375 120.28125 84.4375 C 131.882812 79.9375 142.984375 75.132812 153.578125 70.03125 C 164.179688 64.9375 173.878906 59.988281 182.671875 55.1875 C 191.472656 50.394531 198.675781 46.296875 204.28125 42.890625 C 204.875 42.492188 206.222656 42.296875 208.328125 42.296875 C 210.429688 42.296875 212.378906 42.492188 214.171875 42.890625 C 215.972656 43.296875 216.972656 44 217.171875 45 C 217.378906 46 216.082031 47.394531 213.28125 49.1875 C 204.28125 54.988281 193.328125 61.289062 180.421875 68.09375 C 167.523438 74.894531 153.726562 81.34375 139.03125 87.4375 C 124.332031 93.539062 109.632812 98.539062 94.9375 102.4375 C 80.238281 106.332031 66.390625 108.28125 53.390625 108.28125 Z M 53.390625 108.28125 "/></g></g></g><g fill="#7a2f00" fill-opacity="1"><g transform="translate(979.811383, 391.041004)"><g><path d="M 154.78125 -350.96875 C 158.582031 -350.96875 163.984375 -350.613281 170.984375 -349.90625 C 177.984375 -349.207031 185.53125 -347.457031 193.625 -344.65625 C 201.726562 -341.863281 209.476562 -337.316406 216.875 -331.015625 C 224.269531 -324.710938 230.316406 -316.113281 235.015625 -305.21875 C 239.722656 -294.320312 242.078125 -280.273438 242.078125 -263.078125 C 242.078125 -239.671875 239.828125 -216.066406 235.328125 -192.265625 C 230.828125 -168.472656 224.726562 -145.128906 217.03125 -122.234375 C 209.332031 -99.335938 200.53125 -77.488281 190.625 -56.6875 C 180.726562 -35.894531 170.378906 -16.800781 159.578125 0.59375 C 148.785156 18 138.085938 33.148438 127.484375 46.046875 C 116.890625 58.941406 106.941406 68.9375 97.640625 76.03125 C 88.335938 83.132812 80.289062 86.6875 73.5 86.6875 C 58.894531 86.6875 46.890625 82.9375 37.484375 75.4375 C 28.085938 67.9375 21.191406 57.835938 16.796875 45.140625 C 12.398438 32.441406 10.203125 18.394531 10.203125 3 C 10.203125 -3.996094 10.847656 -13 12.140625 -24 C 13.441406 -35 15.492188 -47.195312 18.296875 -60.59375 C 13.296875 -66.988281 9.144531 -74.585938 5.84375 -83.390625 C 2.550781 -92.191406 0.90625 -102.191406 0.90625 -113.390625 C 0.90625 -128.179688 2.90625 -144.273438 6.90625 -161.671875 C 10.90625 -179.078125 16.503906 -196.675781 23.703125 -214.46875 C 30.898438 -232.269531 39.347656 -249.316406 49.046875 -265.609375 C 58.742188 -281.910156 69.289062 -296.460938 80.6875 -309.265625 C 92.09375 -322.066406 104.09375 -332.21875 116.6875 -339.71875 C 129.28125 -347.21875 141.976562 -350.96875 154.78125 -350.96875 Z M 57.890625 73.796875 C 67.296875 73.796875 77.394531 69.84375 88.1875 61.9375 C 98.988281 54.039062 109.988281 43.09375 121.1875 29.09375 C 132.382812 15.09375 143.332031 -1.050781 154.03125 -19.34375 C 164.726562 -37.644531 174.773438 -57.242188 184.171875 -78.140625 C 193.578125 -99.035156 201.828125 -120.332031 208.921875 -142.03125 C 216.023438 -163.726562 221.625 -185.023438 225.71875 -205.921875 C 229.820312 -226.828125 231.875 -246.378906 231.875 -264.578125 C 231.875 -268.578125 231.472656 -273.675781 230.671875 -279.875 C 229.867188 -286.070312 228.316406 -292.566406 226.015625 -299.359375 C 223.722656 -306.160156 220.425781 -312.507812 216.125 -318.40625 C 211.820312 -324.3125 206.222656 -329.113281 199.328125 -332.8125 C 192.429688 -336.507812 183.984375 -338.359375 173.984375 -338.359375 C 161.585938 -338.359375 149.1875 -335.054688 136.78125 -328.453125 C 124.382812 -321.859375 112.382812 -312.757812 100.78125 -301.15625 C 89.1875 -289.5625 78.488281 -276.164062 68.6875 -260.96875 C 58.894531 -245.769531 50.25 -229.617188 42.75 -212.515625 C 35.25 -195.421875 29.445312 -178.023438 25.34375 -160.328125 C 21.25 -142.628906 19.203125 -125.484375 19.203125 -108.890625 C 19.203125 -103.492188 19.550781 -98.441406 20.25 -93.734375 C 20.945312 -89.035156 21.894531 -84.6875 23.09375 -80.6875 C 26.894531 -95.6875 31.59375 -111.132812 37.1875 -127.03125 C 42.789062 -142.9375 49.441406 -158.488281 57.140625 -173.6875 C 64.835938 -188.882812 73.632812 -202.878906 83.53125 -215.671875 C 93.4375 -228.472656 104.488281 -239.273438 116.6875 -248.078125 C 118.488281 -249.273438 120.835938 -250.023438 123.734375 -250.328125 C 126.640625 -250.628906 129.335938 -250.53125 131.828125 -250.03125 C 134.328125 -249.53125 135.976562 -248.628906 136.78125 -247.328125 C 137.582031 -246.023438 136.785156 -244.472656 134.390625 -242.671875 C 120.984375 -232.273438 108.878906 -219.726562 98.078125 -205.03125 C 87.285156 -190.332031 77.835938 -174.484375 69.734375 -157.484375 C 61.640625 -140.484375 54.789062 -123.234375 49.1875 -105.734375 C 43.59375 -88.234375 39.097656 -71.488281 35.703125 -55.5 C 38.492188 -51.894531 41.238281 -49.242188 43.9375 -47.546875 C 46.644531 -45.847656 48.796875 -45 50.390625 -45 C 53.191406 -45 55.441406 -45 57.140625 -45 C 58.835938 -45 61.238281 -45.445312 64.34375 -46.34375 C 67.445312 -47.238281 72.195312 -48.789062 78.59375 -51 C 79.59375 -52 81.289062 -51.894531 83.6875 -50.6875 C 86.09375 -49.488281 88.34375 -47.941406 90.4375 -46.046875 C 92.539062 -44.148438 93.59375 -42.5 93.59375 -41.09375 C 93.59375 -39.09375 90.738281 -37.242188 85.03125 -35.546875 C 79.332031 -33.847656 72.085938 -33 63.296875 -33 C 59.890625 -33 55.535156 -34.046875 50.234375 -36.140625 C 44.941406 -38.242188 39.394531 -41.394531 33.59375 -45.59375 C 30 -25.59375 28.203125 -8.492188 28.203125 5.703125 C 28.203125 13.492188 28.847656 21.335938 30.140625 29.234375 C 31.441406 37.140625 33.34375 44.492188 35.84375 51.296875 C 38.34375 58.097656 41.441406 63.546875 45.140625 67.640625 C 48.835938 71.742188 53.085938 73.796875 57.890625 73.796875 Z M 57.890625 73.796875 "/></g></g></g></g></g></g><g transform="matrix(1, 0, 0, 1, 6, 6)"><g clip-path="url(#d2d19122cd)"><g fill="#884c4e" fill-opacity="1"><g transform="translate(0.752262, 390.484708)"><g><path d="M 53.390625 108.28125 C 42.992188 108.28125 33.84375 105.679688 25.9375 100.484375 C 18.039062 95.285156 11.84375 88.335938 7.34375 79.640625 C 2.84375 70.941406 0.59375 61.492188 0.59375 51.296875 C 0.59375 39.492188 1.941406 25.289062 4.640625 8.6875 C 7.347656 -7.902344 11.097656 -26.148438 15.890625 -46.046875 C 20.691406 -65.941406 26.242188 -86.488281 32.546875 -107.6875 C 38.847656 -128.882812 45.5 -149.984375 52.5 -170.984375 C 59.5 -191.984375 66.597656 -212.03125 73.796875 -231.125 C 80.992188 -250.21875 88.039062 -267.460938 94.9375 -282.859375 C 101.832031 -298.265625 108.082031 -310.867188 113.6875 -320.671875 C 115.082031 -322.867188 117.628906 -323.816406 121.328125 -323.515625 C 125.035156 -323.210938 129.488281 -322.460938 134.6875 -321.265625 C 139.882812 -320.066406 144.484375 -318.515625 148.484375 -316.609375 C 152.484375 -314.710938 154.285156 -312.664062 153.890625 -310.46875 C 153.679688 -309.269531 152.128906 -308.519531 149.234375 -308.21875 C 146.335938 -307.914062 142.285156 -305.863281 137.078125 -302.0625 C 131.484375 -298.0625 125.285156 -290.160156 118.484375 -278.359375 C 111.679688 -266.566406 104.628906 -252.019531 97.328125 -234.71875 C 90.035156 -217.425781 82.738281 -198.476562 75.4375 -177.875 C 68.144531 -157.28125 61.195312 -136.1875 54.59375 -114.59375 C 43.789062 -78.988281 34.941406 -48.285156 28.046875 -22.484375 C 21.148438 3.304688 17.703125 26.097656 17.703125 45.890625 C 17.703125 65.492188 20.550781 79.34375 26.25 87.4375 C 31.945312 95.539062 40.59375 99.59375 52.1875 99.59375 C 62.789062 99.59375 73.890625 98.191406 85.484375 95.390625 C 97.085938 92.585938 108.6875 88.9375 120.28125 84.4375 C 131.882812 79.9375 142.984375 75.132812 153.578125 70.03125 C 164.179688 64.9375 173.878906 59.988281 182.671875 55.1875 C 191.472656 50.394531 198.675781 46.296875 204.28125 42.890625 C 204.875 42.492188 206.222656 42.296875 208.328125 42.296875 C 210.429688 42.296875 212.378906 42.492188 214.171875 42.890625 C 215.972656 43.296875 216.972656 44 217.171875 45 C 217.378906 46 216.082031 47.394531 213.28125 49.1875 C 204.28125 54.988281 193.328125 61.289062 180.421875 68.09375 C 167.523438 74.894531 153.726562 81.34375 139.03125 87.4375 C 124.332031 93.539062 109.632812 98.539062 94.9375 102.4375 C 80.238281 106.332031 66.390625 108.28125 53.390625 108.28125 Z M 53.390625 108.28125 "/></g></g></g><g fill="#884c4e" fill-opacity="1"><g transform="translate(208.931577, 390.484708)"><g><path d="M 342.265625 -72 C 342.660156 -68.59375 339.160156 -65.988281 331.765625 -64.1875 C 328.160156 -63.394531 324.257812 -62.75 320.0625 -62.25 C 315.863281 -61.75 312.066406 -61.5 308.671875 -61.5 C 301.867188 -61.5 294.816406 -61.847656 287.515625 -62.546875 C 280.222656 -63.242188 272.773438 -63.992188 265.171875 -64.796875 C 263.773438 -45.398438 263.125 -25.648438 263.21875 -5.546875 C 263.320312 14.542969 264.375 34.289062 266.375 53.6875 C 267.96875 67.882812 270.863281 79.285156 275.0625 87.890625 C 279.269531 96.492188 283.972656 102.84375 289.171875 106.9375 C 294.367188 111.039062 299.066406 113.691406 303.265625 114.890625 C 307.671875 115.890625 309.769531 116.835938 309.5625 117.734375 C 309.363281 118.640625 307.765625 119.191406 304.765625 119.390625 C 301.765625 119.585938 298.066406 119.285156 293.671875 118.484375 C 290.472656 117.890625 286.421875 116.390625 281.515625 113.984375 C 276.617188 111.585938 271.570312 107.640625 266.375 102.140625 C 261.175781 96.640625 256.523438 89.140625 252.421875 79.640625 C 248.328125 70.140625 245.378906 57.992188 243.578125 43.203125 C 242.171875 31.992188 241.21875 16.789062 240.71875 -2.40625 C 240.21875 -21.601562 240.96875 -43.597656 242.96875 -68.390625 C 228.375 -70.585938 213.925781 -72.984375 199.625 -75.578125 C 185.332031 -78.179688 171.882812 -79.984375 159.28125 -80.984375 C 135.28125 -51.191406 114.78125 -26.742188 97.78125 -7.640625 C 80.789062 11.449219 67.144531 26.144531 56.84375 36.4375 C 46.539062 46.738281 39.390625 53.789062 35.390625 57.59375 C 30.390625 62.394531 25.890625 64.191406 21.890625 62.984375 C 17.890625 61.785156 13.59375 59.6875 9 56.6875 C 4.800781 53.6875 1.152344 50.535156 -1.9375 47.234375 C -5.039062 43.941406 -5.992188 41.394531 -4.796875 39.59375 C -3.992188 38.59375 -2.195312 38.441406 0.59375 39.140625 C 3.394531 39.847656 7.894531 39.398438 14.09375 37.796875 C 19.5 36.398438 28.597656 30.800781 41.390625 21 C 54.191406 11.195312 69.640625 -2.398438 87.734375 -19.796875 C 105.835938 -37.191406 125.488281 -57.890625 146.6875 -81.890625 L 139.78125 -81.890625 C 128.988281 -81.890625 120.289062 -81.738281 113.6875 -81.4375 C 107.09375 -81.132812 101.84375 -80.734375 97.9375 -80.234375 C 94.039062 -79.734375 90.691406 -78.984375 87.890625 -77.984375 C 83.285156 -76.390625 79.984375 -74.992188 77.984375 -73.796875 C 75.984375 -72.597656 73.882812 -72 71.6875 -72 C 70.289062 -72 68.941406 -73.046875 67.640625 -75.140625 C 66.335938 -77.242188 65.585938 -79.644531 65.390625 -82.34375 C 65.191406 -85.039062 65.992188 -87.289062 67.796875 -89.09375 C 69.191406 -90.488281 72.039062 -91.6875 76.34375 -92.6875 C 80.644531 -93.6875 85.09375 -94.535156 89.6875 -95.234375 C 94.289062 -95.941406 97.691406 -96.296875 99.890625 -96.296875 C 108.085938 -96.296875 116.734375 -95.742188 125.828125 -94.640625 C 134.929688 -93.535156 144.484375 -92.1875 154.484375 -90.59375 C 173.679688 -112.59375 193.425781 -136.9375 213.71875 -163.625 C 234.019531 -190.320312 254.070312 -218.972656 273.875 -249.578125 C 277.46875 -255.171875 280.414062 -261.117188 282.71875 -267.421875 C 285.019531 -273.722656 286.46875 -279.570312 287.0625 -284.96875 C 287.269531 -288.570312 286.972656 -291.769531 286.171875 -294.5625 C 285.367188 -296.96875 285.769531 -300.171875 287.375 -304.171875 C 289.375 -309.367188 291.421875 -315.113281 293.515625 -321.40625 C 295.617188 -327.707031 297.671875 -333.707031 299.671875 -339.40625 C 301.671875 -345.113281 303.566406 -349.765625 305.359375 -353.359375 C 307.160156 -356.960938 308.765625 -358.765625 310.171875 -358.765625 C 313.171875 -358.765625 316.019531 -357.5625 318.71875 -355.15625 C 321.414062 -352.757812 322.765625 -350.0625 322.765625 -347.0625 C 322.765625 -345.664062 321.863281 -342.414062 320.0625 -337.3125 C 318.257812 -332.21875 316.160156 -326.46875 313.765625 -320.0625 C 311.367188 -313.664062 309.171875 -307.765625 307.171875 -302.359375 C 305.171875 -296.960938 303.867188 -293.066406 303.265625 -290.671875 C 303.066406 -289.265625 301.867188 -284.460938 299.671875 -276.265625 C 297.472656 -268.066406 294.820312 -257.066406 291.71875 -243.265625 C 288.613281 -229.472656 285.410156 -213.578125 282.109375 -195.578125 C 278.816406 -177.578125 275.671875 -158.128906 272.671875 -137.234375 C 269.671875 -116.335938 267.367188 -94.59375 265.765625 -72 C 273.367188 -71.195312 280.921875 -70.546875 288.421875 -70.046875 C 295.921875 -69.546875 303.367188 -69.296875 310.765625 -69.296875 C 318.765625 -69.296875 324.460938 -69.691406 327.859375 -70.484375 C 331.265625 -71.285156 333.367188 -72.390625 334.171875 -73.796875 C 334.960938 -75.191406 335.457031 -76.640625 335.65625 -78.140625 C 335.863281 -79.640625 336.265625 -80.488281 336.859375 -80.6875 C 337.460938 -80.882812 338.460938 -79.832031 339.859375 -77.53125 C 341.265625 -75.238281 342.066406 -73.394531 342.265625 -72 Z M 165.578125 -88.796875 C 177.984375 -86.796875 190.679688 -84.546875 203.671875 -82.046875 C 216.671875 -79.546875 229.875 -77.191406 243.28125 -74.984375 C 245.28125 -97.984375 248.578125 -122.734375 253.171875 -149.234375 C 257.773438 -175.734375 264.273438 -203.179688 272.671875 -231.578125 C 252.078125 -202.773438 232.828125 -176.523438 214.921875 -152.828125 C 197.023438 -129.128906 180.578125 -107.785156 165.578125 -88.796875 Z M 165.578125 -88.796875 "/></g></g></g><g fill="#884c4e" fill-opacity="1"><g transform="translate(556.897003, 390.484708)"><g><path d="M -24 99.296875 C -28.195312 99.296875 -32.992188 98.394531 -38.390625 96.59375 C -43.796875 94.789062 -49.097656 91.9375 -54.296875 88.03125 C -59.492188 84.132812 -63.789062 78.882812 -67.1875 72.28125 C -70.59375 65.6875 -72.296875 57.59375 -72.296875 48 C -72.296875 38.195312 -68.992188 26.492188 -62.390625 12.890625 C -55.796875 -0.699219 -46.796875 -15.644531 -35.390625 -31.9375 C -23.992188 -48.238281 -10.945312 -65.335938 3.75 -83.234375 C 18.445312 -101.140625 33.894531 -119.335938 50.09375 -137.828125 C 66.289062 -156.328125 82.535156 -174.523438 98.828125 -192.421875 C 115.128906 -210.328125 130.628906 -227.425781 145.328125 -243.71875 C 160.023438 -260.019531 173.070312 -274.921875 184.46875 -288.421875 C 195.875 -301.921875 204.875 -313.46875 211.46875 -323.0625 C 218.070312 -332.664062 221.375 -339.765625 221.375 -344.359375 C 221.375 -347.160156 220.820312 -349.0625 219.71875 -350.0625 C 218.625 -351.0625 216.378906 -351.5625 212.984375 -351.5625 C 204.773438 -351.5625 194.171875 -349.507812 181.171875 -345.40625 C 168.179688 -341.3125 153.785156 -335.515625 137.984375 -328.015625 C 122.179688 -320.515625 106.128906 -311.664062 89.828125 -301.46875 C 73.535156 -291.269531 57.789062 -280.117188 42.59375 -268.015625 C 27.394531 -255.921875 13.894531 -243.125 2.09375 -229.625 C -9.695312 -216.125 -18.796875 -202.375 -25.203125 -188.375 C -25.992188 -186.375 -27.835938 -185.472656 -30.734375 -185.671875 C -33.640625 -185.878906 -36.390625 -187.378906 -38.984375 -190.171875 C -41.585938 -192.972656 -42.890625 -197.273438 -42.890625 -203.078125 C -42.890625 -205.472656 -39.738281 -210.21875 -33.4375 -217.3125 C -27.144531 -224.414062 -18.445312 -232.914062 -7.34375 -242.8125 C 3.746094 -252.71875 16.34375 -263.269531 30.4375 -274.46875 C 44.539062 -285.664062 59.441406 -296.664062 75.140625 -307.46875 C 90.835938 -318.269531 106.582031 -328.066406 122.375 -336.859375 C 138.175781 -345.660156 153.226562 -352.710938 167.53125 -358.015625 C 181.832031 -363.316406 194.484375 -365.96875 205.484375 -365.96875 C 215.484375 -365.96875 223.128906 -362.164062 228.421875 -354.5625 C 233.722656 -346.96875 236.375 -338.066406 236.375 -327.859375 C 236.375 -322.265625 233.070312 -314.367188 226.46875 -304.171875 C 219.875 -293.972656 210.925781 -282.125 199.625 -268.625 C 188.332031 -255.125 175.382812 -240.320312 160.78125 -224.21875 C 146.1875 -208.125 130.835938 -191.328125 114.734375 -173.828125 C 98.640625 -156.328125 82.492188 -138.53125 66.296875 -120.4375 C 50.097656 -102.34375 34.695312 -84.492188 20.09375 -66.890625 C 5.5 -49.296875 -7.445312 -32.347656 -18.75 -16.046875 C -30.050781 0.253906 -39 15.398438 -45.59375 29.390625 C -52.195312 43.390625 -55.5 55.691406 -55.5 66.296875 C -55.5 70.890625 -54 74.335938 -51 76.640625 C -48 78.941406 -43.097656 79.890625 -36.296875 79.484375 C -23.691406 78.691406 -10.394531 75.992188 3.59375 71.390625 C 17.59375 66.796875 31.742188 60.945312 46.046875 53.84375 C 60.347656 46.75 74.347656 38.898438 88.046875 30.296875 C 101.742188 21.691406 114.640625 12.941406 126.734375 4.046875 C 138.835938 -4.847656 149.6875 -13.296875 159.28125 -21.296875 C 168.882812 -29.296875 176.734375 -36.296875 182.828125 -42.296875 C 188.929688 -48.296875 192.679688 -52.695312 194.078125 -55.5 C 195.078125 -57.09375 196.328125 -57.640625 197.828125 -57.140625 C 199.328125 -56.640625 200.726562 -55.640625 202.03125 -54.140625 C 203.332031 -52.640625 203.984375 -50.988281 203.984375 -49.1875 C 203.984375 -48.394531 201.378906 -45.144531 196.171875 -39.4375 C 190.972656 -33.738281 183.722656 -26.441406 174.421875 -17.546875 C 165.128906 -8.648438 154.382812 0.992188 142.1875 11.390625 C 129.988281 21.796875 116.890625 32.144531 102.890625 42.4375 C 88.890625 52.738281 74.539062 62.1875 59.84375 70.78125 C 45.144531 79.382812 30.644531 86.285156 16.34375 91.484375 C 2.050781 96.691406 -11.394531 99.296875 -24 99.296875 Z M -24 99.296875 "/></g></g></g><g fill="#884c4e" fill-opacity="1"><g transform="translate(771.075753, 390.484708)"><g><path d="M 53.390625 108.28125 C 42.992188 108.28125 33.84375 105.679688 25.9375 100.484375 C 18.039062 95.285156 11.84375 88.335938 7.34375 79.640625 C 2.84375 70.941406 0.59375 61.492188 0.59375 51.296875 C 0.59375 39.492188 1.941406 25.289062 4.640625 8.6875 C 7.347656 -7.902344 11.097656 -26.148438 15.890625 -46.046875 C 20.691406 -65.941406 26.242188 -86.488281 32.546875 -107.6875 C 38.847656 -128.882812 45.5 -149.984375 52.5 -170.984375 C 59.5 -191.984375 66.597656 -212.03125 73.796875 -231.125 C 80.992188 -250.21875 88.039062 -267.460938 94.9375 -282.859375 C 101.832031 -298.265625 108.082031 -310.867188 113.6875 -320.671875 C 115.082031 -322.867188 117.628906 -323.816406 121.328125 -323.515625 C 125.035156 -323.210938 129.488281 -322.460938 134.6875 -321.265625 C 139.882812 -320.066406 144.484375 -318.515625 148.484375 -316.609375 C 152.484375 -314.710938 154.285156 -312.664062 153.890625 -310.46875 C 153.679688 -309.269531 152.128906 -308.519531 149.234375 -308.21875 C 146.335938 -307.914062 142.285156 -305.863281 137.078125 -302.0625 C 131.484375 -298.0625 125.285156 -290.160156 118.484375 -278.359375 C 111.679688 -266.566406 104.628906 -252.019531 97.328125 -234.71875 C 90.035156 -217.425781 82.738281 -198.476562 75.4375 -177.875 C 68.144531 -157.28125 61.195312 -136.1875 54.59375 -114.59375 C 43.789062 -78.988281 34.941406 -48.285156 28.046875 -22.484375 C 21.148438 3.304688 17.703125 26.097656 17.703125 45.890625 C 17.703125 65.492188 20.550781 79.34375 26.25 87.4375 C 31.945312 95.539062 40.59375 99.59375 52.1875 99.59375 C 62.789062 99.59375 73.890625 98.191406 85.484375 95.390625 C 97.085938 92.585938 108.6875 88.9375 120.28125 84.4375 C 131.882812 79.9375 142.984375 75.132812 153.578125 70.03125 C 164.179688 64.9375 173.878906 59.988281 182.671875 55.1875 C 191.472656 50.394531 198.675781 46.296875 204.28125 42.890625 C 204.875 42.492188 206.222656 42.296875 208.328125 42.296875 C 210.429688 42.296875 212.378906 42.492188 214.171875 42.890625 C 215.972656 43.296875 216.972656 44 217.171875 45 C 217.378906 46 216.082031 47.394531 213.28125 49.1875 C 204.28125 54.988281 193.328125 61.289062 180.421875 68.09375 C 167.523438 74.894531 153.726562 81.34375 139.03125 87.4375 C 124.332031 93.539062 109.632812 98.539062 94.9375 102.4375 C 80.238281 106.332031 66.390625 108.28125 53.390625 108.28125 Z M 53.390625 108.28125 "/></g></g></g><g fill="#884c4e" fill-opacity="1"><g transform="translate(979.25509, 390.484708)"><g><path d="M 154.78125 -350.96875 C 158.582031 -350.96875 163.984375 -350.613281 170.984375 -349.90625 C 177.984375 -349.207031 185.53125 -347.457031 193.625 -344.65625 C 201.726562 -341.863281 209.476562 -337.316406 216.875 -331.015625 C 224.269531 -324.710938 230.316406 -316.113281 235.015625 -305.21875 C 239.722656 -294.320312 242.078125 -280.273438 242.078125 -263.078125 C 242.078125 -239.671875 239.828125 -216.066406 235.328125 -192.265625 C 230.828125 -168.472656 224.726562 -145.128906 217.03125 -122.234375 C 209.332031 -99.335938 200.53125 -77.488281 190.625 -56.6875 C 180.726562 -35.894531 170.378906 -16.800781 159.578125 0.59375 C 148.785156 18 138.085938 33.148438 127.484375 46.046875 C 116.890625 58.941406 106.941406 68.9375 97.640625 76.03125 C 88.335938 83.132812 80.289062 86.6875 73.5 86.6875 C 58.894531 86.6875 46.890625 82.9375 37.484375 75.4375 C 28.085938 67.9375 21.191406 57.835938 16.796875 45.140625 C 12.398438 32.441406 10.203125 18.394531 10.203125 3 C 10.203125 -3.996094 10.847656 -13 12.140625 -24 C 13.441406 -35 15.492188 -47.195312 18.296875 -60.59375 C 13.296875 -66.988281 9.144531 -74.585938 5.84375 -83.390625 C 2.550781 -92.191406 0.90625 -102.191406 0.90625 -113.390625 C 0.90625 -128.179688 2.90625 -144.273438 6.90625 -161.671875 C 10.90625 -179.078125 16.503906 -196.675781 23.703125 -214.46875 C 30.898438 -232.269531 39.347656 -249.316406 49.046875 -265.609375 C 58.742188 -281.910156 69.289062 -296.460938 80.6875 -309.265625 C 92.09375 -322.066406 104.09375 -332.21875 116.6875 -339.71875 C 129.28125 -347.21875 141.976562 -350.96875 154.78125 -350.96875 Z M 57.890625 73.796875 C 67.296875 73.796875 77.394531 69.84375 88.1875 61.9375 C 98.988281 54.039062 109.988281 43.09375 121.1875 29.09375 C 132.382812 15.09375 143.332031 -1.050781 154.03125 -19.34375 C 164.726562 -37.644531 174.773438 -57.242188 184.171875 -78.140625 C 193.578125 -99.035156 201.828125 -120.332031 208.921875 -142.03125 C 216.023438 -163.726562 221.625 -185.023438 225.71875 -205.921875 C 229.820312 -226.828125 231.875 -246.378906 231.875 -264.578125 C 231.875 -268.578125 231.472656 -273.675781 230.671875 -279.875 C 229.867188 -286.070312 228.316406 -292.566406 226.015625 -299.359375 C 223.722656 -306.160156 220.425781 -312.507812 216.125 -318.40625 C 211.820312 -324.3125 206.222656 -329.113281 199.328125 -332.8125 C 192.429688 -336.507812 183.984375 -338.359375 173.984375 -338.359375 C 161.585938 -338.359375 149.1875 -335.054688 136.78125 -328.453125 C 124.382812 -321.859375 112.382812 -312.757812 100.78125 -301.15625 C 89.1875 -289.5625 78.488281 -276.164062 68.6875 -260.96875 C 58.894531 -245.769531 50.25 -229.617188 42.75 -212.515625 C 35.25 -195.421875 29.445312 -178.023438 25.34375 -160.328125 C 21.25 -142.628906 19.203125 -125.484375 19.203125 -108.890625 C 19.203125 -103.492188 19.550781 -98.441406 20.25 -93.734375 C 20.945312 -89.035156 21.894531 -84.6875 23.09375 -80.6875 C 26.894531 -95.6875 31.59375 -111.132812 37.1875 -127.03125 C 42.789062 -142.9375 49.441406 -158.488281 57.140625 -173.6875 C 64.835938 -188.882812 73.632812 -202.878906 83.53125 -215.671875 C 93.4375 -228.472656 104.488281 -239.273438 116.6875 -248.078125 C 118.488281 -249.273438 120.835938 -250.023438 123.734375 -250.328125 C 126.640625 -250.628906 129.335938 -250.53125 131.828125 -250.03125 C 134.328125 -249.53125 135.976562 -248.628906 136.78125 -247.328125 C 137.582031 -246.023438 136.785156 -244.472656 134.390625 -242.671875 C 120.984375 -232.273438 108.878906 -219.726562 98.078125 -205.03125 C 87.285156 -190.332031 77.835938 -174.484375 69.734375 -157.484375 C 61.640625 -140.484375 54.789062 -123.234375 49.1875 -105.734375 C 43.59375 -88.234375 39.097656 -71.488281 35.703125 -55.5 C 38.492188 -51.894531 41.238281 -49.242188 43.9375 -47.546875 C 46.644531 -45.847656 48.796875 -45 50.390625 -45 C 53.191406 -45 55.441406 -45 57.140625 -45 C 58.835938 -45 61.238281 -45.445312 64.34375 -46.34375 C 67.445312 -47.238281 72.195312 -48.789062 78.59375 -51 C 79.59375 -52 81.289062 -51.894531 83.6875 -50.6875 C 86.09375 -49.488281 88.34375 -47.941406 90.4375 -46.046875 C 92.539062 -44.148438 93.59375 -42.5 93.59375 -41.09375 C 93.59375 -39.09375 90.738281 -37.242188 85.03125 -35.546875 C 79.332031 -33.847656 72.085938 -33 63.296875 -33 C 59.890625 -33 55.535156 -34.046875 50.234375 -36.140625 C 44.941406 -38.242188 39.394531 -41.394531 33.59375 -45.59375 C 30 -25.59375 28.203125 -8.492188 28.203125 5.703125 C 28.203125 13.492188 28.847656 21.335938 30.140625 29.234375 C 31.441406 37.140625 33.34375 44.492188 35.84375 51.296875 C 38.34375 58.097656 41.441406 63.546875 45.140625 67.640625 C 48.835938 71.742188 53.085938 73.796875 57.890625 73.796875 Z M 57.890625 73.796875 "/></g></g></g></g></g><g clip-path="url(#351c4358f7)"><g transform="matrix(1, 0, 0, 1, 11, 11)"><g clip-path="url(#642fe633c9)"><g fill="#7a2f00" fill-opacity="1"><g transform="translate(1.195959, 390.928415)"><g><path d="M 53.390625 108.28125 C 42.992188 108.28125 33.84375 105.679688 25.9375 100.484375 C 18.039062 95.285156 11.84375 88.335938 7.34375 79.640625 C 2.84375 70.941406 0.59375 61.492188 0.59375 51.296875 C 0.59375 39.492188 1.941406 25.289062 4.640625 8.6875 C 7.347656 -7.902344 11.097656 -26.148438 15.890625 -46.046875 C 20.691406 -65.941406 26.242188 -86.488281 32.546875 -107.6875 C 38.847656 -128.882812 45.5 -149.984375 52.5 -170.984375 C 59.5 -191.984375 66.597656 -212.03125 73.796875 -231.125 C 80.992188 -250.21875 88.039062 -267.460938 94.9375 -282.859375 C 101.832031 -298.265625 108.082031 -310.867188 113.6875 -320.671875 C 115.082031 -322.867188 117.628906 -323.816406 121.328125 -323.515625 C 125.035156 -323.210938 129.488281 -322.460938 134.6875 -321.265625 C 139.882812 -320.066406 144.484375 -318.515625 148.484375 -316.609375 C 152.484375 -314.710938 154.285156 -312.664062 153.890625 -310.46875 C 153.679688 -309.269531 152.128906 -308.519531 149.234375 -308.21875 C 146.335938 -307.914062 142.285156 -305.863281 137.078125 -302.0625 C 131.484375 -298.0625 125.285156 -290.160156 118.484375 -278.359375 C 111.679688 -266.566406 104.628906 -252.019531 97.328125 -234.71875 C 90.035156 -217.425781 82.738281 -198.476562 75.4375 -177.875 C 68.144531 -157.28125 61.195312 -136.1875 54.59375 -114.59375 C 43.789062 -78.988281 34.941406 -48.285156 28.046875 -22.484375 C 21.148438 3.304688 17.703125 26.097656 17.703125 45.890625 C 17.703125 65.492188 20.550781 79.34375 26.25 87.4375 C 31.945312 95.539062 40.59375 99.59375 52.1875 99.59375 C 62.789062 99.59375 73.890625 98.191406 85.484375 95.390625 C 97.085938 92.585938 108.6875 88.9375 120.28125 84.4375 C 131.882812 79.9375 142.984375 75.132812 153.578125 70.03125 C 164.179688 64.9375 173.878906 59.988281 182.671875 55.1875 C 191.472656 50.394531 198.675781 46.296875 204.28125 42.890625 C 204.875 42.492188 206.222656 42.296875 208.328125 42.296875 C 210.429688 42.296875 212.378906 42.492188 214.171875 42.890625 C 215.972656 43.296875 216.972656 44 217.171875 45 C 217.378906 46 216.082031 47.394531 213.28125 49.1875 C 204.28125 54.988281 193.328125 61.289062 180.421875 68.09375 C 167.523438 74.894531 153.726562 81.34375 139.03125 87.4375 C 124.332031 93.539062 109.632812 98.539062 94.9375 102.4375 C 80.238281 106.332031 66.390625 108.28125 53.390625 108.28125 Z M 53.390625 108.28125 "/></g></g></g><g fill="#7a2f00" fill-opacity="1"><g transform="translate(209.375273, 390.928415)"><g><path d="M 342.265625 -72 C 342.660156 -68.59375 339.160156 -65.988281 331.765625 -64.1875 C 328.160156 -63.394531 324.257812 -62.75 320.0625 -62.25 C 315.863281 -61.75 312.066406 -61.5 308.671875 -61.5 C 301.867188 -61.5 294.816406 -61.847656 287.515625 -62.546875 C 280.222656 -63.242188 272.773438 -63.992188 265.171875 -64.796875 C 263.773438 -45.398438 263.125 -25.648438 263.21875 -5.546875 C 263.320312 14.542969 264.375 34.289062 266.375 53.6875 C 267.96875 67.882812 270.863281 79.285156 275.0625 87.890625 C 279.269531 96.492188 283.972656 102.84375 289.171875 106.9375 C 294.367188 111.039062 299.066406 113.691406 303.265625 114.890625 C 307.671875 115.890625 309.769531 116.835938 309.5625 117.734375 C 309.363281 118.640625 307.765625 119.191406 304.765625 119.390625 C 301.765625 119.585938 298.066406 119.285156 293.671875 118.484375 C 290.472656 117.890625 286.421875 116.390625 281.515625 113.984375 C 276.617188 111.585938 271.570312 107.640625 266.375 102.140625 C 261.175781 96.640625 256.523438 89.140625 252.421875 79.640625 C 248.328125 70.140625 245.378906 57.992188 243.578125 43.203125 C 242.171875 31.992188 241.21875 16.789062 240.71875 -2.40625 C 240.21875 -21.601562 240.96875 -43.597656 242.96875 -68.390625 C 228.375 -70.585938 213.925781 -72.984375 199.625 -75.578125 C 185.332031 -78.179688 171.882812 -79.984375 159.28125 -80.984375 C 135.28125 -51.191406 114.78125 -26.742188 97.78125 -7.640625 C 80.789062 11.449219 67.144531 26.144531 56.84375 36.4375 C 46.539062 46.738281 39.390625 53.789062 35.390625 57.59375 C 30.390625 62.394531 25.890625 64.191406 21.890625 62.984375 C 17.890625 61.785156 13.59375 59.6875 9 56.6875 C 4.800781 53.6875 1.152344 50.535156 -1.9375 47.234375 C -5.039062 43.941406 -5.992188 41.394531 -4.796875 39.59375 C -3.992188 38.59375 -2.195312 38.441406 0.59375 39.140625 C 3.394531 39.847656 7.894531 39.398438 14.09375 37.796875 C 19.5 36.398438 28.597656 30.800781 41.390625 21 C 54.191406 11.195312 69.640625 -2.398438 87.734375 -19.796875 C 105.835938 -37.191406 125.488281 -57.890625 146.6875 -81.890625 L 139.78125 -81.890625 C 128.988281 -81.890625 120.289062 -81.738281 113.6875 -81.4375 C 107.09375 -81.132812 101.84375 -80.734375 97.9375 -80.234375 C 94.039062 -79.734375 90.691406 -78.984375 87.890625 -77.984375 C 83.285156 -76.390625 79.984375 -74.992188 77.984375 -73.796875 C 75.984375 -72.597656 73.882812 -72 71.6875 -72 C 70.289062 -72 68.941406 -73.046875 67.640625 -75.140625 C 66.335938 -77.242188 65.585938 -79.644531 65.390625 -82.34375 C 65.191406 -85.039062 65.992188 -87.289062 67.796875 -89.09375 C 69.191406 -90.488281 72.039062 -91.6875 76.34375 -92.6875 C 80.644531 -93.6875 85.09375 -94.535156 89.6875 -95.234375 C 94.289062 -95.941406 97.691406 -96.296875 99.890625 -96.296875 C 108.085938 -96.296875 116.734375 -95.742188 125.828125 -94.640625 C 134.929688 -93.535156 144.484375 -92.1875 154.484375 -90.59375 C 173.679688 -112.59375 193.425781 -136.9375 213.71875 -163.625 C 234.019531 -190.320312 254.070312 -218.972656 273.875 -249.578125 C 277.46875 -255.171875 280.414062 -261.117188 282.71875 -267.421875 C 285.019531 -273.722656 286.46875 -279.570312 287.0625 -284.96875 C 287.269531 -288.570312 286.972656 -291.769531 286.171875 -294.5625 C 285.367188 -296.96875 285.769531 -300.171875 287.375 -304.171875 C 289.375 -309.367188 291.421875 -315.113281 293.515625 -321.40625 C 295.617188 -327.707031 297.671875 -333.707031 299.671875 -339.40625 C 301.671875 -345.113281 303.566406 -349.765625 305.359375 -353.359375 C 307.160156 -356.960938 308.765625 -358.765625 310.171875 -358.765625 C 313.171875 -358.765625 316.019531 -357.5625 318.71875 -355.15625 C 321.414062 -352.757812 322.765625 -350.0625 322.765625 -347.0625 C 322.765625 -345.664062 321.863281 -342.414062 320.0625 -337.3125 C 318.257812 -332.21875 316.160156 -326.46875 313.765625 -320.0625 C 311.367188 -313.664062 309.171875 -307.765625 307.171875 -302.359375 C 305.171875 -296.960938 303.867188 -293.066406 303.265625 -290.671875 C 303.066406 -289.265625 301.867188 -284.460938 299.671875 -276.265625 C 297.472656 -268.066406 294.820312 -257.066406 291.71875 -243.265625 C 288.613281 -229.472656 285.410156 -213.578125 282.109375 -195.578125 C 278.816406 -177.578125 275.671875 -158.128906 272.671875 -137.234375 C 269.671875 -116.335938 267.367188 -94.59375 265.765625 -72 C 273.367188 -71.195312 280.921875 -70.546875 288.421875 -70.046875 C 295.921875 -69.546875 303.367188 -69.296875 310.765625 -69.296875 C 318.765625 -69.296875 324.460938 -69.691406 327.859375 -70.484375 C 331.265625 -71.285156 333.367188 -72.390625 334.171875 -73.796875 C 334.960938 -75.191406 335.457031 -76.640625 335.65625 -78.140625 C 335.863281 -79.640625 336.265625 -80.488281 336.859375 -80.6875 C 337.460938 -80.882812 338.460938 -79.832031 339.859375 -77.53125 C 341.265625 -75.238281 342.066406 -73.394531 342.265625 -72 Z M 165.578125 -88.796875 C 177.984375 -86.796875 190.679688 -84.546875 203.671875 -82.046875 C 216.671875 -79.546875 229.875 -77.191406 243.28125 -74.984375 C 245.28125 -97.984375 248.578125 -122.734375 253.171875 -149.234375 C 257.773438 -175.734375 264.273438 -203.179688 272.671875 -231.578125 C 252.078125 -202.773438 232.828125 -176.523438 214.921875 -152.828125 C 197.023438 -129.128906 180.578125 -107.785156 165.578125 -88.796875 Z M 165.578125 -88.796875 "/></g></g></g><g fill="#7a2f00" fill-opacity="1"><g transform="translate(557.3407, 390.928415)"><g><path d="M -24 99.296875 C -28.195312 99.296875 -32.992188 98.394531 -38.390625 96.59375 C -43.796875 94.789062 -49.097656 91.9375 -54.296875 88.03125 C -59.492188 84.132812 -63.789062 78.882812 -67.1875 72.28125 C -70.59375 65.6875 -72.296875 57.59375 -72.296875 48 C -72.296875 38.195312 -68.992188 26.492188 -62.390625 12.890625 C -55.796875 -0.699219 -46.796875 -15.644531 -35.390625 -31.9375 C -23.992188 -48.238281 -10.945312 -65.335938 3.75 -83.234375 C 18.445312 -101.140625 33.894531 -119.335938 50.09375 -137.828125 C 66.289062 -156.328125 82.535156 -174.523438 98.828125 -192.421875 C 115.128906 -210.328125 130.628906 -227.425781 145.328125 -243.71875 C 160.023438 -260.019531 173.070312 -274.921875 184.46875 -288.421875 C 195.875 -301.921875 204.875 -313.46875 211.46875 -323.0625 C 218.070312 -332.664062 221.375 -339.765625 221.375 -344.359375 C 221.375 -347.160156 220.820312 -349.0625 219.71875 -350.0625 C 218.625 -351.0625 216.378906 -351.5625 212.984375 -351.5625 C 204.773438 -351.5625 194.171875 -349.507812 181.171875 -345.40625 C 168.179688 -341.3125 153.785156 -335.515625 137.984375 -328.015625 C 122.179688 -320.515625 106.128906 -311.664062 89.828125 -301.46875 C 73.535156 -291.269531 57.789062 -280.117188 42.59375 -268.015625 C 27.394531 -255.921875 13.894531 -243.125 2.09375 -229.625 C -9.695312 -216.125 -18.796875 -202.375 -25.203125 -188.375 C -25.992188 -186.375 -27.835938 -185.472656 -30.734375 -185.671875 C -33.640625 -185.878906 -36.390625 -187.378906 -38.984375 -190.171875 C -41.585938 -192.972656 -42.890625 -197.273438 -42.890625 -203.078125 C -42.890625 -205.472656 -39.738281 -210.21875 -33.4375 -217.3125 C -27.144531 -224.414062 -18.445312 -232.914062 -7.34375 -242.8125 C 3.746094 -252.71875 16.34375 -263.269531 30.4375 -274.46875 C 44.539062 -285.664062 59.441406 -296.664062 75.140625 -307.46875 C 90.835938 -318.269531 106.582031 -328.066406 122.375 -336.859375 C 138.175781 -345.660156 153.226562 -352.710938 167.53125 -358.015625 C 181.832031 -363.316406 194.484375 -365.96875 205.484375 -365.96875 C 215.484375 -365.96875 223.128906 -362.164062 228.421875 -354.5625 C 233.722656 -346.96875 236.375 -338.066406 236.375 -327.859375 C 236.375 -322.265625 233.070312 -314.367188 226.46875 -304.171875 C 219.875 -293.972656 210.925781 -282.125 199.625 -268.625 C 188.332031 -255.125 175.382812 -240.320312 160.78125 -224.21875 C 146.1875 -208.125 130.835938 -191.328125 114.734375 -173.828125 C 98.640625 -156.328125 82.492188 -138.53125 66.296875 -120.4375 C 50.097656 -102.34375 34.695312 -84.492188 20.09375 -66.890625 C 5.5 -49.296875 -7.445312 -32.347656 -18.75 -16.046875 C -30.050781 0.253906 -39 15.398438 -45.59375 29.390625 C -52.195312 43.390625 -55.5 55.691406 -55.5 66.296875 C -55.5 70.890625 -54 74.335938 -51 76.640625 C -48 78.941406 -43.097656 79.890625 -36.296875 79.484375 C -23.691406 78.691406 -10.394531 75.992188 3.59375 71.390625 C 17.59375 66.796875 31.742188 60.945312 46.046875 53.84375 C 60.347656 46.75 74.347656 38.898438 88.046875 30.296875 C 101.742188 21.691406 114.640625 12.941406 126.734375 4.046875 C 138.835938 -4.847656 149.6875 -13.296875 159.28125 -21.296875 C 168.882812 -29.296875 176.734375 -36.296875 182.828125 -42.296875 C 188.929688 -48.296875 192.679688 -52.695312 194.078125 -55.5 C 195.078125 -57.09375 196.328125 -57.640625 197.828125 -57.140625 C 199.328125 -56.640625 200.726562 -55.640625 202.03125 -54.140625 C 203.332031 -52.640625 203.984375 -50.988281 203.984375 -49.1875 C 203.984375 -48.394531 201.378906 -45.144531 196.171875 -39.4375 C 190.972656 -33.738281 183.722656 -26.441406 174.421875 -17.546875 C 165.128906 -8.648438 154.382812 0.992188 142.1875 11.390625 C 129.988281 21.796875 116.890625 32.144531 102.890625 42.4375 C 88.890625 52.738281 74.539062 62.1875 59.84375 70.78125 C 45.144531 79.382812 30.644531 86.285156 16.34375 91.484375 C 2.050781 96.691406 -11.394531 99.296875 -24 99.296875 Z M -24 99.296875 "/></g></g></g><g fill="#7a2f00" fill-opacity="1"><g transform="translate(771.51945, 390.928415)"><g><path d="M 53.390625 108.28125 C 42.992188 108.28125 33.84375 105.679688 25.9375 100.484375 C 18.039062 95.285156 11.84375 88.335938 7.34375 79.640625 C 2.84375 70.941406 0.59375 61.492188 0.59375 51.296875 C 0.59375 39.492188 1.941406 25.289062 4.640625 8.6875 C 7.347656 -7.902344 11.097656 -26.148438 15.890625 -46.046875 C 20.691406 -65.941406 26.242188 -86.488281 32.546875 -107.6875 C 38.847656 -128.882812 45.5 -149.984375 52.5 -170.984375 C 59.5 -191.984375 66.597656 -212.03125 73.796875 -231.125 C 80.992188 -250.21875 88.039062 -267.460938 94.9375 -282.859375 C 101.832031 -298.265625 108.082031 -310.867188 113.6875 -320.671875 C 115.082031 -322.867188 117.628906 -323.816406 121.328125 -323.515625 C 125.035156 -323.210938 129.488281 -322.460938 134.6875 -321.265625 C 139.882812 -320.066406 144.484375 -318.515625 148.484375 -316.609375 C 152.484375 -314.710938 154.285156 -312.664062 153.890625 -310.46875 C 153.679688 -309.269531 152.128906 -308.519531 149.234375 -308.21875 C 146.335938 -307.914062 142.285156 -305.863281 137.078125 -302.0625 C 131.484375 -298.0625 125.285156 -290.160156 118.484375 -278.359375 C 111.679688 -266.566406 104.628906 -252.019531 97.328125 -234.71875 C 90.035156 -217.425781 82.738281 -198.476562 75.4375 -177.875 C 68.144531 -157.28125 61.195312 -136.1875 54.59375 -114.59375 C 43.789062 -78.988281 34.941406 -48.285156 28.046875 -22.484375 C 21.148438 3.304688 17.703125 26.097656 17.703125 45.890625 C 17.703125 65.492188 20.550781 79.34375 26.25 87.4375 C 31.945312 95.539062 40.59375 99.59375 52.1875 99.59375 C 62.789062 99.59375 73.890625 98.191406 85.484375 95.390625 C 97.085938 92.585938 108.6875 88.9375 120.28125 84.4375 C 131.882812 79.9375 142.984375 75.132812 153.578125 70.03125 C 164.179688 64.9375 173.878906 59.988281 182.671875 55.1875 C 191.472656 50.394531 198.675781 46.296875 204.28125 42.890625 C 204.875 42.492188 206.222656 42.296875 208.328125 42.296875 C 210.429688 42.296875 212.378906 42.492188 214.171875 42.890625 C 215.972656 43.296875 216.972656 44 217.171875 45 C 217.378906 46 216.082031 47.394531 213.28125 49.1875 C 204.28125 54.988281 193.328125 61.289062 180.421875 68.09375 C 167.523438 74.894531 153.726562 81.34375 139.03125 87.4375 C 124.332031 93.539062 109.632812 98.539062 94.9375 102.4375 C 80.238281 106.332031 66.390625 108.28125 53.390625 108.28125 Z M 53.390625 108.28125 "/></g></g></g><g fill="#7a2f00" fill-opacity="1"><g transform="translate(979.698787, 390.928415)"><g><path d="M 154.78125 -350.96875 C 158.582031 -350.96875 163.984375 -350.613281 170.984375 -349.90625 C 177.984375 -349.207031 185.53125 -347.457031 193.625 -344.65625 C 201.726562 -341.863281 209.476562 -337.316406 216.875 -331.015625 C 224.269531 -324.710938 230.316406 -316.113281 235.015625 -305.21875 C 239.722656 -294.320312 242.078125 -280.273438 242.078125 -263.078125 C 242.078125 -239.671875 239.828125 -216.066406 235.328125 -192.265625 C 230.828125 -168.472656 224.726562 -145.128906 217.03125 -122.234375 C 209.332031 -99.335938 200.53125 -77.488281 190.625 -56.6875 C 180.726562 -35.894531 170.378906 -16.800781 159.578125 0.59375 C 148.785156 18 138.085938 33.148438 127.484375 46.046875 C 116.890625 58.941406 106.941406 68.9375 97.640625 76.03125 C 88.335938 83.132812 80.289062 86.6875 73.5 86.6875 C 58.894531 86.6875 46.890625 82.9375 37.484375 75.4375 C 28.085938 67.9375 21.191406 57.835938 16.796875 45.140625 C 12.398438 32.441406 10.203125 18.394531 10.203125 3 C 10.203125 -3.996094 10.847656 -13 12.140625 -24 C 13.441406 -35 15.492188 -47.195312 18.296875 -60.59375 C 13.296875 -66.988281 9.144531 -74.585938 5.84375 -83.390625 C 2.550781 -92.191406 0.90625 -102.191406 0.90625 -113.390625 C 0.90625 -128.179688 2.90625 -144.273438 6.90625 -161.671875 C 10.90625 -179.078125 16.503906 -196.675781 23.703125 -214.46875 C 30.898438 -232.269531 39.347656 -249.316406 49.046875 -265.609375 C 58.742188 -281.910156 69.289062 -296.460938 80.6875 -309.265625 C 92.09375 -322.066406 104.09375 -332.21875 116.6875 -339.71875 C 129.28125 -347.21875 141.976562 -350.96875 154.78125 -350.96875 Z M 57.890625 73.796875 C 67.296875 73.796875 77.394531 69.84375 88.1875 61.9375 C 98.988281 54.039062 109.988281 43.09375 121.1875 29.09375 C 132.382812 15.09375 143.332031 -1.050781 154.03125 -19.34375 C 164.726562 -37.644531 174.773438 -57.242188 184.171875 -78.140625 C 193.578125 -99.035156 201.828125 -120.332031 208.921875 -142.03125 C 216.023438 -163.726562 221.625 -185.023438 225.71875 -205.921875 C 229.820312 -226.828125 231.875 -246.378906 231.875 -264.578125 C 231.875 -268.578125 231.472656 -273.675781 230.671875 -279.875 C 229.867188 -286.070312 228.316406 -292.566406 226.015625 -299.359375 C 223.722656 -306.160156 220.425781 -312.507812 216.125 -318.40625 C 211.820312 -324.3125 206.222656 -329.113281 199.328125 -332.8125 C 192.429688 -336.507812 183.984375 -338.359375 173.984375 -338.359375 C 161.585938 -338.359375 149.1875 -335.054688 136.78125 -328.453125 C 124.382812 -321.859375 112.382812 -312.757812 100.78125 -301.15625 C 89.1875 -289.5625 78.488281 -276.164062 68.6875 -260.96875 C 58.894531 -245.769531 50.25 -229.617188 42.75 -212.515625 C 35.25 -195.421875 29.445312 -178.023438 25.34375 -160.328125 C 21.25 -142.628906 19.203125 -125.484375 19.203125 -108.890625 C 19.203125 -103.492188 19.550781 -98.441406 20.25 -93.734375 C 20.945312 -89.035156 21.894531 -84.6875 23.09375 -80.6875 C 26.894531 -95.6875 31.59375 -111.132812 37.1875 -127.03125 C 42.789062 -142.9375 49.441406 -158.488281 57.140625 -173.6875 C 64.835938 -188.882812 73.632812 -202.878906 83.53125 -215.671875 C 93.4375 -228.472656 104.488281 -239.273438 116.6875 -248.078125 C 118.488281 -249.273438 120.835938 -250.023438 123.734375 -250.328125 C 126.640625 -250.628906 129.335938 -250.53125 131.828125 -250.03125 C 134.328125 -249.53125 135.976562 -248.628906 136.78125 -247.328125 C 137.582031 -246.023438 136.785156 -244.472656 134.390625 -242.671875 C 120.984375 -232.273438 108.878906 -219.726562 98.078125 -205.03125 C 87.285156 -190.332031 77.835938 -174.484375 69.734375 -157.484375 C 61.640625 -140.484375 54.789062 -123.234375 49.1875 -105.734375 C 43.59375 -88.234375 39.097656 -71.488281 35.703125 -55.5 C 38.492188 -51.894531 41.238281 -49.242188 43.9375 -47.546875 C 46.644531 -45.847656 48.796875 -45 50.390625 -45 C 53.191406 -45 55.441406 -45 57.140625 -45 C 58.835938 -45 61.238281 -45.445312 64.34375 -46.34375 C 67.445312 -47.238281 72.195312 -48.789062 78.59375 -51 C 79.59375 -52 81.289062 -51.894531 83.6875 -50.6875 C 86.09375 -49.488281 88.34375 -47.941406 90.4375 -46.046875 C 92.539062 -44.148438 93.59375 -42.5 93.59375 -41.09375 C 93.59375 -39.09375 90.738281 -37.242188 85.03125 -35.546875 C 79.332031 -33.847656 72.085938 -33 63.296875 -33 C 59.890625 -33 55.535156 -34.046875 50.234375 -36.140625 C 44.941406 -38.242188 39.394531 -41.394531 33.59375 -45.59375 C 30 -25.59375 28.203125 -8.492188 28.203125 5.703125 C 28.203125 13.492188 28.847656 21.335938 30.140625 29.234375 C 31.441406 37.140625 33.34375 44.492188 35.84375 51.296875 C 38.34375 58.097656 41.441406 63.546875 45.140625 67.640625 C 48.835938 71.742188 53.085938 73.796875 57.890625 73.796875 Z M 57.890625 73.796875 "/></g></g></g></g></g></g></g></g></svg>