<svg xmlns="http://www.w3.org/2000/svg" xmlns:xlink="http://www.w3.org/1999/xlink" width="1920" zoomAndPan="magnify" viewBox="0 0 1440 817.92" height="1080" preserveAspectRatio="xMidYMid meet" version="1.0"><defs><g/></defs><g fill="#e7b93b" fill-opacity="1"><g transform="translate(451.020837, 367.464063)"><g><path d="M 102.984375 -37.796875 C 105.921875 -40.328125 108.488281 -41.359375 110.6875 -40.890625 C 112.882812 -40.421875 113.984375 -38.253906 113.984375 -34.390625 C 113.984375 -33.585938 113.847656 -32.71875 113.578125 -31.78125 C 113.316406 -30.851562 112.953125 -30.023438 112.484375 -29.296875 C 112.015625 -28.566406 111.410156 -27.800781 110.671875 -27 C 109.941406 -26.195312 109.210938 -25.492188 108.484375 -24.890625 C 107.753906 -24.296875 106.921875 -23.664062 105.984375 -23 C 105.046875 -22.332031 104.242188 -21.765625 103.578125 -21.296875 C 102.910156 -20.828125 102.109375 -20.257812 101.171875 -19.59375 C 100.242188 -18.925781 99.582031 -18.460938 99.1875 -18.203125 C 95.988281 -16.066406 92.65625 -14.265625 89.1875 -12.796875 C 88.914062 -12.660156 88.25 -12.328125 87.1875 -11.796875 C 83.582031 -8.066406 80.382812 -5.535156 77.59375 -4.203125 C 74.925781 -3.128906 71.390625 -2.460938 66.984375 -2.203125 C 62.453125 -0.867188 59.320312 -1 57.59375 -2.59375 C 57.0625 -2.59375 55.492188 -2.726562 52.890625 -3 C 50.296875 -3.269531 48.53125 -3.4375 47.59375 -3.5 C 46.65625 -3.5625 45.21875 -3.59375 43.28125 -3.59375 C 41.351562 -3.59375 39.6875 -3.394531 38.28125 -3 C 36.882812 -2.601562 35.519531 -2.070312 34.1875 -1.40625 C 32.457031 -0.332031 30.257812 0.132812 27.59375 0 C 24.925781 -0.132812 20.328125 -0.664062 13.796875 -1.59375 C 9.128906 -2.257812 5.195312 -2.726562 2 -3 C 1.332031 -3 0.597656 -3 -0.203125 -3 C -1.003906 -3 -1.867188 -3.03125 -2.796875 -3.09375 C -3.734375 -3.164062 -4.46875 -3.398438 -5 -3.796875 C -6.46875 -4.734375 -8.265625 -8.332031 -10.390625 -14.59375 C -11.597656 -18.195312 -12.332031 -21.929688 -12.59375 -25.796875 C -12.863281 -27.398438 -12.863281 -28.664062 -12.59375 -29.59375 C -11.925781 -32.925781 -10.863281 -34.992188 -9.40625 -35.796875 C -8.863281 -36.054688 -7.859375 -36.320312 -6.390625 -36.59375 C -4.929688 -36.863281 -3.867188 -37.332031 -3.203125 -38 C -2.003906 -38.925781 -1.003906 -40.457031 -0.203125 -42.59375 C 0.597656 -44.863281 1.066406 -47.195312 1.203125 -49.59375 C 1.335938 -51.726562 1.535156 -53.128906 1.796875 -53.796875 C 2.328125 -54.585938 3.359375 -55.453125 4.890625 -56.390625 C 6.429688 -57.328125 7.269531 -57.859375 7.40625 -57.984375 C 9 -59.316406 10.394531 -61.117188 11.59375 -63.390625 C 12.125 -64.585938 13.191406 -68.320312 14.796875 -74.59375 C 16.265625 -79.519531 17.460938 -84.582031 18.390625 -89.78125 C 19.328125 -94.851562 19.992188 -99.1875 20.390625 -102.78125 C 21.054688 -111.050781 21.957031 -115.914062 23.09375 -117.375 C 24.226562 -118.84375 26.359375 -119.539062 29.484375 -119.46875 C 32.617188 -119.40625 35.320312 -118.507812 37.59375 -116.78125 C 38.65625 -116.113281 39.617188 -115.015625 40.484375 -113.484375 C 41.359375 -111.953125 41.992188 -110.582031 42.390625 -109.375 C 42.796875 -108.175781 43.296875 -106.507812 43.890625 -104.375 C 44.492188 -102.25 44.925781 -100.851562 45.1875 -100.1875 C 47.59375 -92.988281 49.328125 -86.320312 50.390625 -80.1875 C 50.785156 -77.789062 51.25 -74.289062 51.78125 -69.6875 C 52.320312 -65.09375 52.925781 -60.925781 53.59375 -57.1875 C 54.257812 -53.457031 55.191406 -49.992188 56.390625 -46.796875 C 58.523438 -40.929688 59.257812 -35.664062 58.59375 -31 C 58.1875 -28.0625 57.984375 -25.328125 57.984375 -22.796875 C 57.984375 -20.265625 58.816406 -18.195312 60.484375 -16.59375 C 62.148438 -15 64.71875 -14.332031 68.1875 -14.59375 C 69.65625 -14.726562 71.117188 -15.0625 72.578125 -15.59375 C 74.046875 -16.125 75.28125 -16.65625 76.28125 -17.1875 C 77.28125 -17.726562 78.546875 -18.597656 80.078125 -19.796875 C 81.617188 -20.992188 82.65625 -21.828125 83.1875 -22.296875 C 83.71875 -22.765625 84.851562 -23.796875 86.59375 -25.390625 C 88.59375 -27.265625 91.691406 -29.695312 95.890625 -32.6875 C 100.085938 -35.6875 102.453125 -37.390625 102.984375 -37.796875 Z M 30 -24.203125 C 36 -25.535156 39.53125 -28.5 40.59375 -33.09375 C 41.65625 -37.695312 40.519531 -45.128906 37.1875 -55.390625 C 33.851562 -65.117188 31.789062 -69.984375 31 -69.984375 C 30.0625 -69.984375 29.257812 -68.117188 28.59375 -64.390625 C 27.789062 -60.921875 26.789062 -58.390625 25.59375 -56.796875 C 24 -54.523438 21.46875 -49.6875 18 -42.28125 C 14.53125 -34.882812 13.0625 -30.789062 13.59375 -30 C 14.257812 -29.0625 15.59375 -28.054688 17.59375 -26.984375 C 19.59375 -25.921875 21.757812 -25.125 24.09375 -24.59375 C 26.425781 -24.0625 28.394531 -23.929688 30 -24.203125 Z M 30 -24.203125 "/></g></g></g><g fill="#e7b93b" fill-opacity="1"><g transform="translate(572.306672, 367.464063)"><g><path d="M 116.984375 -38.390625 C 118.984375 -37.328125 119.984375 -34.992188 119.984375 -31.390625 C 120.117188 -27.265625 117.785156 -23.398438 112.984375 -19.796875 C 111.242188 -18.597656 109.242188 -17.398438 106.984375 -16.203125 C 106.585938 -16.066406 106.117188 -15.796875 105.578125 -15.390625 C 103.710938 -14.328125 102.113281 -13.726562 100.78125 -13.59375 C 96.78125 -13.332031 92.914062 -14.929688 89.1875 -18.390625 C 88.25 -19.191406 87.25 -20.59375 86.1875 -22.59375 L 85.59375 -23.59375 C 84.382812 -25.59375 83.25 -26.859375 82.1875 -27.390625 C 81.125 -27.929688 79.789062 -27.800781 78.1875 -27 C 76.1875 -25.925781 73.921875 -22.660156 71.390625 -17.203125 C 70.191406 -14.398438 69.191406 -12.460938 68.390625 -11.390625 C 65.859375 -7.660156 63.660156 -5.53125 61.796875 -5 C 59.390625 -3.800781 56.117188 -1.933594 51.984375 0.59375 C 46.921875 3.664062 42.125 5.332031 37.59375 5.59375 C 32.394531 6 28.53125 6.535156 26 7.203125 C 25.332031 7.335938 24.664062 7.40625 24 7.40625 C 22.53125 7.40625 21.265625 7.132812 20.203125 6.59375 C 18.597656 5.925781 16.265625 4.128906 13.203125 1.203125 C 9.867188 -1.867188 7.597656 -4.566406 6.390625 -6.890625 C 5.191406 -9.222656 3.992188 -13.328125 2.796875 -19.203125 C 0.796875 -28.796875 0.328125 -36.488281 1.390625 -42.28125 C 2.460938 -48.082031 5.398438 -54.851562 10.203125 -62.59375 C 16.328125 -72.457031 22.125 -79.585938 27.59375 -83.984375 C 33.0625 -88.378906 39.796875 -91.515625 47.796875 -93.390625 C 51.660156 -94.179688 55.054688 -95.578125 57.984375 -97.578125 C 62.648438 -100.648438 66.785156 -101.785156 70.390625 -100.984375 C 73.859375 -100.316406 77.859375 -97.582031 82.390625 -92.78125 C 84.785156 -90.113281 86.515625 -87.976562 87.578125 -86.375 C 88.648438 -84.78125 89.382812 -83.25 89.78125 -81.78125 C 90.1875 -80.320312 90.390625 -78.191406 90.390625 -75.390625 C 90.390625 -63.523438 90.785156 -54.328125 91.578125 -47.796875 C 91.984375 -43.929688 92.882812 -40.960938 94.28125 -38.890625 C 95.6875 -36.828125 98.117188 -34.328125 101.578125 -31.390625 L 102.1875 -31.796875 C 104.582031 -33.390625 106.316406 -34.65625 107.390625 -35.59375 C 111.378906 -38.65625 114.578125 -39.585938 116.984375 -38.390625 Z M 70.78125 -72.78125 C 70.78125 -77.988281 70.25 -80.859375 69.1875 -81.390625 C 68.925781 -81.117188 68.660156 -80.785156 68.390625 -80.390625 C 67.722656 -79.191406 67.789062 -76.457031 68.59375 -72.1875 C 69.125 -69.125 69.65625 -67.191406 70.1875 -66.390625 C 70.582031 -67.453125 70.78125 -69.582031 70.78125 -72.78125 Z M 64.984375 -42 C 65.523438 -45.0625 65.460938 -47.257812 64.796875 -48.59375 C 64.253906 -49.925781 62.585938 -51.992188 59.796875 -54.796875 C 55.390625 -59.054688 53.1875 -62.585938 53.1875 -65.390625 C 53.1875 -67.253906 52.585938 -69.453125 51.390625 -71.984375 C 50.191406 -74.515625 48.992188 -76.179688 47.796875 -76.984375 C 46.859375 -77.648438 46.054688 -77.984375 45.390625 -77.984375 C 44.859375 -77.984375 44.394531 -77.851562 44 -77.59375 C 42.664062 -76.925781 39.929688 -74.457031 35.796875 -70.1875 C 32.191406 -66.59375 28.820312 -61.992188 25.6875 -56.390625 C 22.5625 -50.796875 20.265625 -45.53125 18.796875 -40.59375 C 17.328125 -35.925781 17.0625 -32.523438 18 -30.390625 C 19.0625 -28.390625 19.660156 -24.992188 19.796875 -20.203125 C 20.191406 -16.597656 20.722656 -13.929688 21.390625 -12.203125 C 22.054688 -10.734375 23.054688 -9.734375 24.390625 -9.203125 C 25.859375 -8.535156 28.257812 -8.203125 31.59375 -8.203125 C 33.195312 -8.203125 34.53125 -8.269531 35.59375 -8.40625 C 36.65625 -8.40625 37.65625 -8.535156 38.59375 -8.796875 C 39.53125 -9.066406 40.394531 -9.398438 41.1875 -9.796875 C 42.125 -10.328125 43.0625 -10.925781 44 -11.59375 C 44.925781 -12.257812 46.054688 -13.128906 47.390625 -14.203125 C 52.453125 -18.203125 55.316406 -21.398438 55.984375 -23.796875 C 56.785156 -26.328125 58.390625 -28.992188 60.796875 -31.796875 C 62.921875 -34.054688 64.316406 -37.457031 64.984375 -42 Z M 64.984375 -42 "/></g></g></g><g fill="#e7b93b" fill-opacity="1"><g transform="translate(701.191603, 367.464063)"><g><path d="M 176.96875 -30.390625 C 179.90625 -32.796875 182.472656 -33.765625 184.671875 -33.296875 C 186.867188 -32.828125 188.035156 -30.726562 188.171875 -27 C 188.171875 -25.800781 187.90625 -24.597656 187.375 -23.390625 C 186.84375 -22.191406 186.242188 -21.160156 185.578125 -20.296875 C 184.910156 -19.429688 183.910156 -18.460938 182.578125 -17.390625 C 181.242188 -16.328125 180.207031 -15.53125 179.46875 -15 C 178.738281 -14.46875 177.601562 -13.703125 176.0625 -12.703125 C 174.53125 -11.703125 173.566406 -11.066406 173.171875 -10.796875 C 169.035156 -7.992188 165.035156 -4.992188 161.171875 -1.796875 C 155.972656 2.335938 150.578125 5.203125 144.984375 6.796875 C 138.441406 8.660156 133.375 9.660156 129.78125 9.796875 C 126.050781 9.929688 121.453125 9.195312 115.984375 7.59375 C 110.785156 6.257812 106.617188 4.492188 103.484375 2.296875 C 100.347656 0.0976562 97.910156 -2.726562 96.171875 -6.1875 C 94.441406 -9.65625 93.546875 -14.023438 93.484375 -19.296875 C 93.421875 -24.566406 94.054688 -30.53125 95.390625 -37.1875 C 96.585938 -43.988281 98.585938 -52.191406 101.390625 -61.796875 C 102.179688 -64.191406 101.910156 -65.390625 100.578125 -65.390625 C 96.984375 -65.390625 89.984375 -58.988281 79.578125 -46.1875 C 69.179688 -33.394531 61.117188 -21.398438 55.390625 -10.203125 C 51.390625 -2.460938 48.054688 2.203125 45.390625 3.796875 C 42.722656 5.398438 39.722656 4.601562 36.390625 1.40625 C 33.585938 -1.132812 32.253906 -3.570312 32.390625 -5.90625 C 32.523438 -8.238281 34.257812 -13.203125 37.59375 -20.796875 C 40.394531 -26.398438 41.796875 -30.265625 41.796875 -32.390625 C 41.796875 -34.253906 43.195312 -38.125 46 -44 C 47.863281 -50.65625 48.460938 -54.1875 47.796875 -54.59375 C 46.328125 -54.59375 43.425781 -52.222656 39.09375 -47.484375 C 34.757812 -42.753906 30.222656 -37.085938 25.484375 -30.484375 C 20.753906 -23.890625 17.191406 -18.328125 14.796875 -13.796875 C 11.066406 -6.867188 7.664062 -2.46875 4.59375 -0.59375 C 1.53125 1.269531 -1.53125 0.867188 -4.59375 -1.796875 C -7.53125 -4.460938 -8.664062 -7.757812 -8 -11.6875 C -7.332031 -15.625 -4.664062 -22.0625 0 -31 C 1.332031 -33.789062 2.628906 -37.882812 3.890625 -43.28125 C 5.160156 -48.6875 6.394531 -52.523438 7.59375 -54.796875 C 12 -64.253906 16.800781 -70.984375 22 -74.984375 C 23.195312 -75.921875 24.460938 -76.753906 25.796875 -77.484375 C 27.128906 -78.222656 28.492188 -78.691406 29.890625 -78.890625 C 31.296875 -79.085938 32.226562 -78.648438 32.6875 -77.578125 C 33.15625 -76.515625 33.125 -74.71875 32.59375 -72.1875 C 31.394531 -68.050781 31.863281 -66.1875 34 -66.59375 C 35.59375 -66.726562 37.457031 -68.523438 39.59375 -71.984375 C 42.65625 -76.648438 46.253906 -80.453125 50.390625 -83.390625 C 51.992188 -84.453125 53.328125 -85.25 54.390625 -85.78125 C 55.722656 -86.320312 56.585938 -86.65625 56.984375 -86.78125 C 57.648438 -87.1875 58.582031 -87.320312 59.78125 -87.1875 C 60.988281 -87.050781 61.859375 -86.914062 62.390625 -86.78125 C 62.921875 -86.78125 63.988281 -86.515625 65.59375 -85.984375 C 67.320312 -85.453125 68.65625 -85.117188 69.59375 -84.984375 C 73.320312 -84.179688 75.1875 -83.113281 75.1875 -81.78125 C 75.457031 -81.519531 75.65625 -79.519531 75.78125 -75.78125 C 76.050781 -74.050781 76.382812 -72.785156 76.78125 -71.984375 C 77.1875 -71.179688 77.988281 -70.8125 79.1875 -70.875 C 80.382812 -70.945312 81.847656 -71.414062 83.578125 -72.28125 C 85.316406 -73.15625 87.921875 -74.722656 91.390625 -76.984375 C 99.390625 -82.054688 106.253906 -84.988281 111.984375 -85.78125 C 116.242188 -86.1875 118.90625 -86.085938 119.96875 -85.484375 C 121.039062 -84.890625 122.175781 -83.320312 123.375 -80.78125 C 124.976562 -76.65625 125.3125 -71.390625 124.375 -64.984375 C 123.445312 -58.585938 121.71875 -52.59375 119.1875 -47 C 116.25 -41.394531 114.78125 -37.125 114.78125 -34.1875 C 114.78125 -31.789062 114.046875 -28.257812 112.578125 -23.59375 C 111.109375 -19.59375 111.34375 -15.859375 113.28125 -12.390625 C 115.21875 -8.929688 118.25 -6.800781 122.375 -6 C 124.78125 -5.601562 127.914062 -5.800781 131.78125 -6.59375 C 132.84375 -6.863281 139.304688 -9.53125 151.171875 -14.59375 C 151.171875 -14.59375 152.40625 -15.328125 154.875 -16.796875 C 157.34375 -18.265625 160.007812 -19.832031 162.875 -21.5 C 165.738281 -23.164062 168.570312 -24.863281 171.375 -26.59375 C 174.175781 -28.332031 176.039062 -29.597656 176.96875 -30.390625 Z M 176.96875 -30.390625 "/></g></g></g><g fill="#e7b93b" fill-opacity="1"><g transform="translate(898.868188, 367.464063)"><g><path d="M 93.984375 -22.390625 C 96.921875 -24.796875 99.488281 -25.765625 101.6875 -25.296875 C 103.882812 -24.828125 104.984375 -22.726562 104.984375 -19 C 105.117188 -17.800781 104.882812 -16.597656 104.28125 -15.390625 C 103.6875 -14.191406 103.054688 -13.160156 102.390625 -12.296875 C 101.722656 -11.429688 100.753906 -10.460938 99.484375 -9.390625 C 98.210938 -8.328125 97.175781 -7.53125 96.375 -7 C 95.582031 -6.46875 94.414062 -5.703125 92.875 -4.703125 C 91.34375 -3.703125 90.445312 -3.066406 90.1875 -2.796875 C 86.988281 -0.660156 83.722656 1.132812 80.390625 2.59375 C 80.117188 2.726562 79.75 2.894531 79.28125 3.09375 C 78.820312 3.300781 78.320312 3.503906 77.78125 3.703125 C 77.25 3.898438 76.71875 4.097656 76.1875 4.296875 C 75.65625 4.492188 75.222656 4.660156 74.890625 4.796875 L 74.390625 5 C 66.253906 8.332031 57.519531 10.265625 48.1875 10.796875 C 38.59375 11.328125 31.597656 10.460938 27.203125 8.203125 C 26.660156 7.929688 24.523438 6.992188 20.796875 5.390625 C 17.066406 3.796875 14.398438 2.398438 12.796875 1.203125 C 9.734375 -0.792969 6.800781 -5.128906 4 -11.796875 C -1.195312 -23.796875 -3.796875 -34.394531 -3.796875 -43.59375 C -3.796875 -49.1875 -2.796875 -56.519531 -0.796875 -65.59375 C -0.660156 -66.125 -0.425781 -67.253906 -0.09375 -68.984375 C 0.238281 -70.722656 0.535156 -72.023438 0.796875 -72.890625 C 1.066406 -73.753906 1.398438 -74.953125 1.796875 -76.484375 C 2.203125 -78.015625 2.601562 -79.3125 3 -80.375 C 3.394531 -81.445312 3.859375 -82.550781 4.390625 -83.6875 C 4.929688 -84.820312 5.46875 -85.851562 6 -86.78125 C 8.800781 -90.644531 11.066406 -93.445312 12.796875 -95.1875 C 19.992188 -102.65625 29.125 -105.988281 40.1875 -105.1875 C 51.65625 -104.25 57.859375 -100.445312 58.796875 -93.78125 C 59.585938 -88.582031 59.285156 -83.21875 57.890625 -77.6875 C 56.492188 -72.15625 54.757812 -67.585938 52.6875 -63.984375 C 50.625 -60.390625 47.757812 -55.722656 44.09375 -49.984375 C 40.425781 -44.253906 37.789062 -39.859375 36.1875 -36.796875 C 30.320312 -25.734375 27.390625 -19.132812 27.390625 -17 C 27.390625 -15.257812 29.054688 -12.789062 32.390625 -9.59375 C 34.523438 -7.59375 36.425781 -6.394531 38.09375 -6 C 39.757812 -5.601562 42.789062 -5.800781 47.1875 -6.59375 C 54.125 -7.53125 61.660156 -9.195312 69.796875 -11.59375 C 72.859375 -12.664062 77.320312 -14.46875 83.1875 -17 C 89.050781 -19.53125 92.648438 -21.328125 93.984375 -22.390625 Z M 16.390625 -36.59375 C 17.597656 -36.59375 20.929688 -41.789062 26.390625 -52.1875 C 31.722656 -62.59375 34.390625 -68.859375 34.390625 -70.984375 C 34.390625 -73.515625 33.023438 -75.144531 30.296875 -75.875 C 27.566406 -76.613281 25.398438 -75.984375 23.796875 -73.984375 C 22.460938 -72.390625 21.128906 -69.992188 19.796875 -66.796875 C 18.460938 -63.585938 17.394531 -60.316406 16.59375 -56.984375 C 15.925781 -53.648438 15.328125 -50.453125 14.796875 -47.390625 C 14.265625 -44.328125 14.128906 -41.757812 14.390625 -39.6875 C 14.660156 -37.625 15.328125 -36.59375 16.390625 -36.59375 Z M 16.390625 -36.59375 "/></g></g></g><g fill="#e7b93b" fill-opacity="1"><g transform="translate(365.939315, 647.186692)"><g><path d="M 116.984375 -38.390625 C 118.984375 -37.328125 119.984375 -34.992188 119.984375 -31.390625 C 120.117188 -27.265625 117.785156 -23.398438 112.984375 -19.796875 C 111.242188 -18.597656 109.242188 -17.398438 106.984375 -16.203125 C 106.585938 -16.066406 106.117188 -15.796875 105.578125 -15.390625 C 103.710938 -14.328125 102.113281 -13.726562 100.78125 -13.59375 C 96.78125 -13.332031 92.914062 -14.929688 89.1875 -18.390625 C 88.25 -19.191406 87.25 -20.59375 86.1875 -22.59375 L 85.59375 -23.59375 C 84.382812 -25.59375 83.25 -26.859375 82.1875 -27.390625 C 81.125 -27.929688 79.789062 -27.800781 78.1875 -27 C 76.1875 -25.925781 73.921875 -22.660156 71.390625 -17.203125 C 70.191406 -14.398438 69.191406 -12.460938 68.390625 -11.390625 C 65.859375 -7.660156 63.660156 -5.53125 61.796875 -5 C 59.390625 -3.800781 56.117188 -1.933594 51.984375 0.59375 C 46.921875 3.664062 42.125 5.332031 37.59375 5.59375 C 32.394531 6 28.53125 6.535156 26 7.203125 C 25.332031 7.335938 24.664062 7.40625 24 7.40625 C 22.53125 7.40625 21.265625 7.132812 20.203125 6.59375 C 18.597656 5.925781 16.265625 4.128906 13.203125 1.203125 C 9.867188 -1.867188 7.597656 -4.566406 6.390625 -6.890625 C 5.191406 -9.222656 3.992188 -13.328125 2.796875 -19.203125 C 0.796875 -28.796875 0.328125 -36.488281 1.390625 -42.28125 C 2.460938 -48.082031 5.398438 -54.851562 10.203125 -62.59375 C 16.328125 -72.457031 22.125 -79.585938 27.59375 -83.984375 C 33.0625 -88.378906 39.796875 -91.515625 47.796875 -93.390625 C 51.660156 -94.179688 55.054688 -95.578125 57.984375 -97.578125 C 62.648438 -100.648438 66.785156 -101.785156 70.390625 -100.984375 C 73.859375 -100.316406 77.859375 -97.582031 82.390625 -92.78125 C 84.785156 -90.113281 86.515625 -87.976562 87.578125 -86.375 C 88.648438 -84.78125 89.382812 -83.25 89.78125 -81.78125 C 90.1875 -80.320312 90.390625 -78.191406 90.390625 -75.390625 C 90.390625 -63.523438 90.785156 -54.328125 91.578125 -47.796875 C 91.984375 -43.929688 92.882812 -40.960938 94.28125 -38.890625 C 95.6875 -36.828125 98.117188 -34.328125 101.578125 -31.390625 L 102.1875 -31.796875 C 104.582031 -33.390625 106.316406 -34.65625 107.390625 -35.59375 C 111.378906 -38.65625 114.578125 -39.585938 116.984375 -38.390625 Z M 70.78125 -72.78125 C 70.78125 -77.988281 70.25 -80.859375 69.1875 -81.390625 C 68.925781 -81.117188 68.660156 -80.785156 68.390625 -80.390625 C 67.722656 -79.191406 67.789062 -76.457031 68.59375 -72.1875 C 69.125 -69.125 69.65625 -67.191406 70.1875 -66.390625 C 70.582031 -67.453125 70.78125 -69.582031 70.78125 -72.78125 Z M 64.984375 -42 C 65.523438 -45.0625 65.460938 -47.257812 64.796875 -48.59375 C 64.253906 -49.925781 62.585938 -51.992188 59.796875 -54.796875 C 55.390625 -59.054688 53.1875 -62.585938 53.1875 -65.390625 C 53.1875 -67.253906 52.585938 -69.453125 51.390625 -71.984375 C 50.191406 -74.515625 48.992188 -76.179688 47.796875 -76.984375 C 46.859375 -77.648438 46.054688 -77.984375 45.390625 -77.984375 C 44.859375 -77.984375 44.394531 -77.851562 44 -77.59375 C 42.664062 -76.925781 39.929688 -74.457031 35.796875 -70.1875 C 32.191406 -66.59375 28.820312 -61.992188 25.6875 -56.390625 C 22.5625 -50.796875 20.265625 -45.53125 18.796875 -40.59375 C 17.328125 -35.925781 17.0625 -32.523438 18 -30.390625 C 19.0625 -28.390625 19.660156 -24.992188 19.796875 -20.203125 C 20.191406 -16.597656 20.722656 -13.929688 21.390625 -12.203125 C 22.054688 -10.734375 23.054688 -9.734375 24.390625 -9.203125 C 25.859375 -8.535156 28.257812 -8.203125 31.59375 -8.203125 C 33.195312 -8.203125 34.53125 -8.269531 35.59375 -8.40625 C 36.65625 -8.40625 37.65625 -8.535156 38.59375 -8.796875 C 39.53125 -9.066406 40.394531 -9.398438 41.1875 -9.796875 C 42.125 -10.328125 43.0625 -10.925781 44 -11.59375 C 44.925781 -12.257812 46.054688 -13.128906 47.390625 -14.203125 C 52.453125 -18.203125 55.316406 -21.398438 55.984375 -23.796875 C 56.785156 -26.328125 58.390625 -28.992188 60.796875 -31.796875 C 62.921875 -34.054688 64.316406 -37.457031 64.984375 -42 Z M 64.984375 -42 "/></g></g></g><g fill="#e7b93b" fill-opacity="1"><g transform="translate(494.824246, 647.186692)"><g><path d="M 84.1875 -27.390625 C 84.1875 -25.128906 82.085938 -21.929688 77.890625 -17.796875 C 73.691406 -13.660156 70.390625 -10.925781 67.984375 -9.59375 C 66.390625 -8.53125 64.523438 -7.5 62.390625 -6.5 C 60.253906 -5.5 58.253906 -4.597656 56.390625 -3.796875 C 54.523438 -2.992188 52.789062 -2.289062 51.1875 -1.6875 C 49.59375 -1.09375 48.226562 -0.5625 47.09375 -0.09375 C 45.957031 0.363281 45.320312 0.59375 45.1875 0.59375 C 41.851562 2.0625 38.453125 3.0625 34.984375 3.59375 C 31.523438 4.132812 28.757812 4.4375 26.6875 4.5 C 24.625 4.5625 22.59375 4.992188 20.59375 5.796875 C 18.59375 6.597656 16.828125 8.265625 15.296875 10.796875 C 13.765625 13.328125 12.332031 17.128906 11 22.203125 C 10.0625 25.660156 8.925781 32.054688 7.59375 41.390625 C 6.257812 50.722656 4.492188 58.65625 2.296875 65.1875 C 0.0976562 71.71875 -3.195312 77.117188 -7.59375 81.390625 C -10.925781 84.585938 -13.957031 86.71875 -16.6875 87.78125 C -19.425781 88.851562 -21.660156 88.988281 -23.390625 88.1875 C -25.128906 87.382812 -26.695312 86.050781 -28.09375 84.1875 C -29.488281 82.320312 -30.453125 79.988281 -30.984375 77.1875 C -31.523438 74.382812 -31.925781 71.582031 -32.1875 68.78125 C -32.457031 65.988281 -32.328125 63.191406 -31.796875 60.390625 C -30.859375 53.191406 -29.15625 46.023438 -26.6875 38.890625 C -24.226562 31.765625 -20.832031 23.300781 -16.5 13.5 C -12.164062 3.695312 -9.265625 -3.066406 -7.796875 -6.796875 C -5.796875 -11.859375 -3.929688 -17.859375 -2.203125 -24.796875 C -2.066406 -25.734375 -1.796875 -27.398438 -1.390625 -29.796875 C -0.992188 -32.191406 -0.5625 -34.222656 -0.09375 -35.890625 C 0.363281 -37.554688 1.0625 -39.054688 2 -40.390625 C 2.53125 -41.191406 3.425781 -42.191406 4.6875 -43.390625 C 5.957031 -44.585938 7.191406 -45.753906 8.390625 -46.890625 C 9.597656 -48.023438 10.800781 -49.191406 12 -50.390625 C 13.195312 -51.585938 14.160156 -52.882812 14.890625 -54.28125 C 15.628906 -55.6875 16 -57.125 16 -58.59375 C 16 -62.0625 18.128906 -69.523438 22.390625 -80.984375 C 26.660156 -92.585938 31.460938 -103.988281 36.796875 -115.1875 C 46.253906 -135.71875 51.453125 -147.179688 52.390625 -149.578125 C 52.785156 -150.378906 53.21875 -151.476562 53.6875 -152.875 C 54.15625 -154.269531 54.585938 -155.566406 54.984375 -156.765625 C 55.390625 -157.972656 55.859375 -159.273438 56.390625 -160.671875 C 56.921875 -162.078125 57.519531 -163.378906 58.1875 -164.578125 C 58.851562 -165.773438 59.585938 -166.875 60.390625 -167.875 C 61.191406 -168.875 62.125 -169.707031 63.1875 -170.375 C 64.257812 -171.039062 65.460938 -171.503906 66.796875 -171.765625 C 71.191406 -172.429688 74.554688 -171.164062 76.890625 -167.96875 C 79.222656 -164.769531 80.320312 -160.972656 80.1875 -156.578125 C 80.050781 -151.773438 79.445312 -146.804688 78.375 -141.671875 C 77.3125 -136.546875 76.113281 -131.984375 74.78125 -127.984375 C 73.445312 -123.984375 71.515625 -119.28125 68.984375 -113.875 C 66.453125 -108.476562 64.316406 -104.210938 62.578125 -101.078125 C 60.847656 -97.953125 58.382812 -93.488281 55.1875 -87.6875 C 51.988281 -81.882812 49.65625 -77.648438 48.1875 -74.984375 C 44.59375 -68.054688 38.828125 -58.222656 30.890625 -45.484375 C 22.960938 -32.753906 18.460938 -25.457031 17.390625 -23.59375 C 16.460938 -22.125 15.796875 -20.859375 15.390625 -19.796875 C 14.992188 -18.734375 14.894531 -17.5 15.09375 -16.09375 C 15.289062 -14.695312 15.890625 -13.5 16.890625 -12.5 C 17.890625 -11.5 19.289062 -10.832031 21.09375 -10.5 C 22.894531 -10.164062 25.925781 -9.800781 30.1875 -9.40625 C 32.59375 -9.132812 35.226562 -9.332031 38.09375 -10 C 40.957031 -10.664062 43.585938 -11.597656 45.984375 -12.796875 C 48.390625 -13.992188 50.820312 -15.289062 53.28125 -16.6875 C 55.75 -18.09375 57.816406 -19.425781 59.484375 -20.6875 C 61.148438 -21.957031 62.617188 -23.054688 63.890625 -23.984375 C 65.160156 -24.921875 65.859375 -25.390625 65.984375 -25.390625 C 68.921875 -27.390625 71.320312 -29.125 73.1875 -30.59375 C 76.125 -33.125 78.691406 -34.15625 80.890625 -33.6875 C 83.085938 -33.226562 84.1875 -31.128906 84.1875 -27.390625 Z M -10.203125 30.796875 C -10.328125 30.929688 -10.457031 31.195312 -10.59375 31.59375 C -13.925781 43.0625 -14.257812 50.394531 -11.59375 53.59375 C -8.53125 47.988281 -6.53125 40.253906 -5.59375 30.390625 C -5.46875 29.191406 -5.671875 28.328125 -6.203125 27.796875 C -7.003906 26.992188 -7.9375 27.0625 -9 28 C -9.53125 28.53125 -9.929688 29.460938 -10.203125 30.796875 Z M -10.203125 30.796875 "/></g></g></g><g fill="#e7b93b" fill-opacity="1"><g transform="translate(586.513681, 647.186692)"><g/></g></g><g fill="#e7b93b" fill-opacity="1"><g transform="translate(698.000704, 647.186692)"><g><path d="M 47.796875 -121.375 C 44.054688 -120.445312 40.390625 -121.78125 36.796875 -125.375 C 34.265625 -127.914062 32.929688 -129.582031 32.796875 -130.375 C 32.660156 -131.175781 33.59375 -132.378906 35.59375 -133.984375 C 38.394531 -135.984375 41.960938 -136.984375 46.296875 -136.984375 C 50.628906 -136.984375 53.59375 -135.984375 55.1875 -133.984375 C 56.925781 -131.710938 57.023438 -129.242188 55.484375 -126.578125 C 53.953125 -123.910156 51.390625 -122.175781 47.796875 -121.375 Z M 83.390625 -25.59375 C 84.316406 -24 84.347656 -22.46875 83.484375 -21 C 82.617188 -19.53125 80.1875 -17.128906 76.1875 -13.796875 C 69.925781 -8.460938 62.523438 -3.597656 53.984375 0.796875 C 47.585938 3.992188 40.957031 5.289062 34.09375 4.6875 C 27.226562 4.09375 20.757812 2.128906 14.6875 -1.203125 C 8.625 -4.535156 3.394531 -8.867188 -1 -14.203125 C -7.257812 -21.660156 -9.125 -31.59375 -6.59375 -44 C -6.332031 -44.925781 -5.800781 -48.125 -5 -53.59375 C -4.195312 -59.0625 -3.363281 -63.894531 -2.5 -68.09375 C -1.632812 -72.289062 -0.664062 -75.054688 0.40625 -76.390625 C 1.601562 -77.859375 3.566406 -78.859375 6.296875 -79.390625 C 9.023438 -79.921875 11.859375 -79.953125 14.796875 -79.484375 C 17.734375 -79.015625 20.535156 -78.144531 23.203125 -76.875 C 25.867188 -75.613281 27.695312 -73.914062 28.6875 -71.78125 C 29.6875 -69.65625 29.65625 -67.257812 28.59375 -64.59375 C 25.53125 -58.1875 24 -53.71875 24 -51.1875 C 24 -48.789062 22.664062 -45.789062 20 -42.1875 C 17.726562 -39.519531 16.359375 -36.285156 15.890625 -32.484375 C 15.429688 -28.691406 16.066406 -26.195312 17.796875 -25 C 19.265625 -24.46875 20 -22.800781 20 -20 C 20 -17.59375 21.734375 -14.859375 25.203125 -11.796875 C 27.597656 -9.535156 29.492188 -8.269531 30.890625 -8 C 32.296875 -7.726562 34.863281 -8.0625 38.59375 -9 C 44.0625 -11 51.0625 -15.066406 59.59375 -21.203125 C 66.394531 -26.128906 71.5625 -28.925781 75.09375 -29.59375 C 78.625 -30.257812 81.390625 -28.925781 83.390625 -25.59375 Z M 83.390625 -25.59375 "/></g></g></g><g fill="#e7b93b" fill-opacity="1"><g transform="translate(784.890693, 647.186692)"><g><path d="M -8.203125 -27.59375 C -6.066406 -31.195312 -1.933594 -39.429688 4.1875 -52.296875 C 10.320312 -65.160156 15.59375 -74.191406 20 -79.390625 C 20.664062 -80.316406 21.398438 -81.179688 22.203125 -81.984375 C 23.796875 -83.722656 25.992188 -85.023438 28.796875 -85.890625 C 31.597656 -86.753906 34.128906 -86.65625 36.390625 -85.59375 C 37.191406 -85.050781 37.757812 -83.644531 38.09375 -81.375 C 38.425781 -79.113281 38.925781 -77.914062 39.59375 -77.78125 C 40.53125 -77.65625 42.796875 -78.859375 46.390625 -81.390625 C 52.523438 -85.648438 62.191406 -89.179688 75.390625 -91.984375 C 80.722656 -93.316406 84.1875 -93.847656 85.78125 -93.578125 C 87.382812 -93.316406 89.382812 -92.117188 91.78125 -89.984375 C 94.851562 -86.921875 96.453125 -83.1875 96.578125 -78.78125 C 96.710938 -74.382812 95.25 -70.253906 92.1875 -66.390625 C 89.914062 -63.054688 86.976562 -56.457031 83.375 -46.59375 C 79.78125 -36.726562 77.984375 -29.929688 77.984375 -26.203125 C 77.984375 -23.535156 78.882812 -20.632812 80.6875 -17.5 C 82.488281 -14.363281 84.6875 -11.757812 87.28125 -9.6875 C 89.882812 -7.625 92.253906 -6.59375 94.390625 -6.59375 C 97.585938 -6.59375 104.316406 -9.257812 114.578125 -14.59375 C 124.847656 -19.925781 132.914062 -24.992188 138.78125 -29.796875 C 143.175781 -33.128906 146.304688 -34.691406 148.171875 -34.484375 C 150.035156 -34.285156 150.96875 -32.320312 150.96875 -28.59375 C 150.96875 -27 150.269531 -25.164062 148.875 -23.09375 C 147.476562 -21.03125 145.644531 -18.863281 143.375 -16.59375 C 140.976562 -14.457031 138.179688 -12.289062 134.984375 -10.09375 C 131.785156 -7.894531 128.519531 -6.128906 125.1875 -4.796875 C 116.382812 -0.660156 110.050781 2.335938 106.1875 4.203125 C 99.519531 7.265625 93.617188 8.128906 88.484375 6.796875 C 83.347656 5.460938 77.316406 1.332031 70.390625 -5.59375 C 64.785156 -11.195312 61.484375 -15.03125 60.484375 -17.09375 C 59.484375 -19.164062 58.984375 -23.132812 58.984375 -29 C 58.984375 -37.53125 60.519531 -46.394531 63.59375 -55.59375 C 66.257812 -64.789062 67.328125 -69.789062 66.796875 -70.59375 C 65.992188 -71.382812 60.59375 -67.082031 50.59375 -57.6875 C 40.59375 -48.289062 30.789062 -38.359375 21.1875 -27.890625 C 11.59375 -17.429688 6.796875 -11.398438 6.796875 -9.796875 C 6.796875 -8.460938 5.960938 -6.992188 4.296875 -5.390625 C 2.628906 -3.796875 0.597656 -2.5 -1.796875 -1.5 C -4.203125 -0.5 -6.335938 -0.195312 -8.203125 -0.59375 C -11.265625 -1 -13.394531 -3.398438 -14.59375 -7.796875 C -15.53125 -10.734375 -15.664062 -13.332031 -15 -15.59375 C -14.332031 -17.863281 -12.066406 -21.863281 -8.203125 -27.59375 Z M -8.203125 -27.59375 "/></g></g></g><g fill="#e7b93b" fill-opacity="1"><g transform="translate(945.571763, 647.186692)"><g><path d="M 151.96875 -27.203125 C 151.707031 -25.203125 150.441406 -22.867188 148.171875 -20.203125 C 142.046875 -13.003906 134.484375 -7.503906 125.484375 -3.703125 C 116.484375 0.0976562 107.25 1.664062 97.78125 1 C 95.644531 0.863281 93.910156 0.597656 92.578125 0.203125 C 91.117188 -0.324219 89.054688 -1.53125 86.390625 -3.40625 C 80.785156 -7.269531 68.253906 -16 48.796875 -29.59375 C 45.992188 -31.457031 43.789062 -32.257812 42.1875 -32 C 40.1875 -31.726562 38.320312 -30.257812 36.59375 -27.59375 C 33.125 -22.125 30.988281 -16.125 30.1875 -9.59375 C 29.925781 -7.195312 29.597656 -5.53125 29.203125 -4.59375 C 28.265625 -2.863281 26.695312 -1.695312 24.5 -1.09375 C 22.300781 -0.5 20.265625 -0.664062 18.390625 -1.59375 C 15.054688 -2.925781 12.328125 -5.925781 10.203125 -10.59375 C 9.265625 -12.332031 8.726562 -14.164062 8.59375 -16.09375 C 8.46875 -18.03125 8.601562 -20.765625 9 -24.296875 C 9.394531 -27.828125 9.59375 -29.859375 9.59375 -30.390625 C 9.726562 -31.992188 10.160156 -34.296875 10.890625 -37.296875 C 11.628906 -40.296875 12.066406 -42.53125 12.203125 -44 C 12.328125 -46.394531 13.921875 -52.191406 16.984375 -61.390625 C 20.054688 -70.585938 22.523438 -77.117188 24.390625 -80.984375 C 29.328125 -91.253906 32.59375 -101.1875 34.1875 -110.78125 C 35.257812 -117.976562 42.992188 -136.84375 57.390625 -167.375 C 58.992188 -170.84375 60.925781 -173.675781 63.1875 -175.875 C 65.457031 -178.070312 68.390625 -180.238281 71.984375 -182.375 C 78.515625 -186.101562 83.648438 -187.300781 87.390625 -185.96875 C 89.515625 -185.164062 91.210938 -183.734375 92.484375 -181.671875 C 93.753906 -179.609375 94.488281 -177.375 94.6875 -174.96875 C 94.882812 -172.570312 94.847656 -170.175781 94.578125 -167.78125 C 93.648438 -160.570312 90.320312 -150.367188 84.59375 -137.171875 C 75.519531 -116.773438 69.519531 -103.3125 66.59375 -96.78125 C 68.1875 -96.519531 69.882812 -96.351562 71.6875 -96.28125 C 73.488281 -96.21875 75.585938 -96.285156 77.984375 -96.484375 C 80.390625 -96.679688 82.125 -96.78125 83.1875 -96.78125 C 90.113281 -96.914062 95.179688 -95.25 98.390625 -91.78125 C 103.179688 -86.445312 102.976562 -78.582031 97.78125 -68.1875 C 91.382812 -55.65625 82.519531 -44.457031 71.1875 -34.59375 C 72.65625 -33.53125 74.253906 -32.394531 75.984375 -31.1875 C 77.722656 -29.988281 79.523438 -28.722656 81.390625 -27.390625 C 83.253906 -26.054688 84.785156 -24.925781 85.984375 -24 C 92.253906 -19.59375 97.1875 -16.992188 100.78125 -16.203125 C 107.582031 -14.597656 115.179688 -15.929688 123.578125 -20.203125 C 125.984375 -21.535156 129.382812 -23.597656 133.78125 -26.390625 C 138.175781 -29.191406 141.507812 -31.191406 143.78125 -32.390625 C 145.25 -33.191406 146.378906 -33.59375 147.171875 -33.59375 C 148.640625 -33.59375 149.804688 -32.957031 150.671875 -31.6875 C 151.535156 -30.425781 151.96875 -29.0625 151.96875 -27.59375 C 151.96875 -27.59375 151.96875 -27.5625 151.96875 -27.5 C 151.96875 -27.425781 151.96875 -27.328125 151.96875 -27.203125 Z M 62.1875 -55.59375 C 65.925781 -58.925781 67.394531 -61.789062 66.59375 -64.1875 C 65.519531 -66.71875 63.914062 -67.785156 61.78125 -67.390625 C 59.65625 -66.992188 57.328125 -65.257812 54.796875 -62.1875 C 50.929688 -57.125 49.992188 -53.757812 51.984375 -52.09375 C 53.984375 -50.425781 57.382812 -51.59375 62.1875 -55.59375 Z M 62.1875 -55.59375 "/></g></g></g></svg>